{"accessors":[{"bufferView":0,"componentType":5121,"count":36,"max":[23],"min":[0],"type":"SCALAR"},{"bufferView":1,"componentType":5126,"count":24,"max":[1.0,1.0,1.0],"min":[-1.0,-1.0,-1.0],"type":"VEC3"},{"bufferView":2,"componentType":5126,"count":24,"max":[1.0,1.0,1.0],"min":[-1.0,-1.0,-1.0],"type":"VEC3"},{"bufferView":3,"componentType":5126,"count":24,"max":[0.875,1.0],"min":[0.125,0.0],"type":"VEC2"},{"bufferView":4,"componentType":5121,"count":36,"max":[23],"min":[0],"type":"SCALAR"},{"bufferView":5,"componentType":5126,"count":24,"max":[1.0,1.0,1.0],"min":[-1.0,-1.0,-1.0],"type":"VEC3"},{"bufferView":6,"componentType":5126,"count":24,"max":[1.0,1.0,1.0],"min":[-1.0,-1.0,-1.0],"type":"VEC3"},{"bufferView":7,"componentType":5126,"count":24,"max":[0.875,1.0],"min":[0.125,0.0],"type":"VEC2"},{"bufferView":8,"componentType":5121,"count":36,"max":[23],"min":[0],"type":"SCALAR"},{"bufferView":9,"componentType":5126,"count":24,"max":[1.0,1.0,1.0],"min":[-1.0,-1.0,-1.0],"type":"VEC3"},{"bufferView":10,"componentType":5126,"count":24,"max":[1.0,1.0,1.0],"min":[-1.0,-1.0,-1.0],"type":"VEC3"},{"bufferView":11,"componentType":5126,"count":24,"max":[0.875,1.0],"min":[0.125,0.0],"type":"VEC2"},{"bufferView":12,"componentType":5121,"count":36,"max":[23],"min":[0],"type":"SCALAR"},{"bufferView":13,"componentType":5126,"count":24,"max":[1.0,1.0,1.0],"min":[-1.0,-1.0,-1.0],"type":"VEC3"},{"bufferView":14,"componentType":5126,"count":24,"max":[1.0,1.0,1.0],"min":[-1.0,-1.0,-1.0],"type":"VEC3"},{"bufferView":15,"componentType":5126,"count":24,"max":[0.875,1.0],"min":[0.125,0.0],"type":"VEC2"},{"bufferView":16,"componentType":5121,"count":36,"max":[23],"min":[0],"type":"SCALAR"},{"bufferView":17,"componentType":5126,"count":24,"max":[1.0,1.0,1.0],"min":[-1.0,-1.0,-1.0],"type":"VEC3"},{"bufferView":18,"componentType":5126,"count":24,"max":[1.0,1.0,1.0],"min":[-1.0,-1.0,-1.0],"type":"VEC3"},{"bufferView":19,"componentType":5126,"count":24,"max":[0.875,1.0],"min":[0.125,0.0],"type":"VEC2"},{"bufferView":20,"componentType":5123,"count":4374,"max":[1053],"min":[0],"type":"SCALAR"},{"bufferView":21,"componentType":5126,"count":1054,"max":[2.733971118927002,2.6836624145507812,1.4288047552108765],"min":[-2.733971118927002,1.8443632125854492,-1.4402660131454468],"type":"VEC3"},{"bufferView":22,"componentType":5126,"count":1054,"max":[0.9965157508850098,1.0,0.9996035099029541],"min":[-0.9965157508850098,-1.0,-0.9999973773956299],"type":"VEC3"},{"bufferView":23,"componentType":5126,"count":1054,"max":[0.947131335735321,0.9291896820068359],"min":[-0.04390445351600647,0.02954810857772827],"type":"VEC2"},{"bufferView":24,"componentType":5123,"count":5484,"max":[1079],"min":[0],"type":"SCALAR"},{"bufferView":25,"componentType":5126,"count":1080,"max":[2.7300500869750977,2.2158355712890625,1.4348859786987305],"min":[-2.7300500869750977,-0.9792844653129578,-1.5796602964401245],"type":"VEC3"},{"bufferView":26,"componentType":5126,"count":1080,"max":[0.9998219013214111,0.9999630451202393,1.0],"min":[-0.9998219013214111,-0.9992864727973938,-0.9999980926513672],"type":"VEC3"},{"bufferView":27,"componentType":5126,"count":1080,"max":[0.8941872119903564,4.506716251373291],"min":[-0.7175582647323608,-3.5067129135131836],"type":"VEC2"},{"bufferView":28,"componentType":5123,"count":2112,"max":[385],"min":[0],"type":"SCALAR"},{"bufferView":29,"componentType":5126,"count":386,"max":[1.4493051767349243,1.6288995742797852,0.5646986961364746],"min":[-1.4493051767349243,1.2201247215270996,-0.4547771215438843],"type":"VEC3"},{"bufferView":30,"componentType":5126,"count":386,"max":[0.9227494597434998,-0.28262001276016235,0.908198356628418],"min":[-0.9326871633529663,-0.9990115165710449,-0.9411096572875977],"type":"VEC3"},{"bufferView":31,"componentType":5126,"count":386,"max":[0.9993634223937988,0.9432106018066406],"min":[0.0006365776062011719,0.06246894598007202],"type":"VEC2"},{"bufferView":32,"componentType":5123,"count":2304,"max":[691],"min":[0],"type":"SCALAR"},{"bufferView":33,"componentType":5126,"count":692,"max":[1.5465110540390015,1.2210793495178223,0.6581629514694214],"min":[-1.5465110540390015,1.1621365547180176,-0.545777440071106],"type":"VEC3"},{"bufferView":34,"componentType":5126,"count":692,"max":[0.999971330165863,2.0999992557335645e-05,0.9999291896820068],"min":[-0.999971330165863,-1.0,-0.9999291300773621],"type":"VEC3"},{"bufferView":35,"componentType":5126,"count":692,"max":[2.3343005180358887,2.274146556854248],"min":[-1.3343005180358887,0.02440178394317627],"type":"VEC2"},{"bufferView":36,"componentType":5121,"count":330,"max":[141],"min":[0],"type":"SCALAR"},{"bufferView":37,"componentType":5126,"count":142,"max":[1.3143543004989624,1.8921470642089844,1.464430332183838],"min":[-1.3824430704116821,1.6690921783447266,1.3622304201126099],"type":"VEC3"},{"bufferView":38,"componentType":5126,"count":142,"max":[0.9999537467956543,0.999991774559021,0.9998700618743896],"min":[-0.9999659061431885,-0.999992311000824,-0.04346302151679993],"type":"VEC3"},{"bufferView":39,"componentType":5126,"count":142,"max":[0.9972571730613708,1.0144670009613037],"min":[-0.03882569074630737,0.07524436712265015],"type":"VEC2"},{"bufferView":40,"componentType":5123,"count":1152,"max":[259],"min":[0],"type":"SCALAR"},{"bufferView":41,"componentType":5126,"count":260,"max":[1.4678932428359985,1.2861052751541138,0.5829182267189026],"min":[-1.4678932428359985,1.1194496154785156,-0.4722273349761963],"type":"VEC3"},{"bufferView":42,"componentType":5126,"count":260,"max":[0.18632498383522034,-0.9809848666191101,0.18883906304836273],"min":[-0.18632498383522034,-0.9999988675117493,-0.1796419471502304],"type":"VEC3"},{"bufferView":43,"componentType":5126,"count":260,"max":[0.21401865780353546,0.1887093484401703,0.9815577864646912,1.0],"min":[-0.21401378512382507,-0.17923811078071594,0.9614617824554443,-1.0],"type":"VEC4"},{"bufferView":44,"componentType":5126,"count":260,"max":[0.917389452457428,0.997322678565979],"min":[0.07578423619270325,0.12513768672943115],"type":"VEC2"},{"bufferView":45,"componentType":5121,"count":54,"max":[17],"min":[0],"type":"SCALAR"},{"bufferView":46,"componentType":5126,"count":18,"max":[2.709841251373291,2.1228532791137695,0.12104463577270508],"min":[2.605494499206543,2.0734949111938477,-0.15039312839508057],"type":"VEC3"},{"bufferView":47,"componentType":5126,"count":18,"max":[0.0,1.0,0.9991676211357117],"min":[0.0,-1.0,-0.9968787431716919],"type":"VEC3"},{"bufferView":48,"componentType":5126,"count":18,"max":[0.5000000596046448,0.5000000596046448],"min":[0.4999999403953552,0.4999999403953552],"type":"VEC2"},{"bufferView":49,"componentType":5121,"count":480,"max":[131],"min":[0],"type":"SCALAR"},{"bufferView":50,"componentType":5126,"count":132,"max":[2.0645840167999268,2.2312557697296143,1.3410303592681885],"min":[-2.0645840167999268,-0.9872555732727051,-1.3730701208114624],"type":"VEC3"},{"bufferView":51,"componentType":5126,"count":132,"max":[0.9998103976249695,0.0,1.0],"min":[-0.9998103380203247,-0.5757839679718018,-1.0],"type":"VEC3"},{"bufferView":52,"componentType":5126,"count":132,"max":[25.130937576293945,25.227266311645508],"min":[-17.981182098388672,-25.279869079589844],"type":"VEC2"},{"bufferView":53,"componentType":5123,"count":4368,"max":[759],"min":[0],"type":"SCALAR"},{"bufferView":54,"componentType":5126,"count":760,"max":[2.451420783996582,1.3879070281982422,1.5794755220413208],"min":[-2.451420783996582,-1.5256762504577637,-1.682471513748169],"type":"VEC3"},{"bufferView":55,"componentType":5126,"count":760,"max":[0.9971294403076172,0.9999793171882629,0.996204137802124],"min":[-0.9973032474517822,-0.999971330165863,-0.9998917579650879],"type":"VEC3"},{"bufferView":56,"componentType":5126,"count":760,"max":[0.5463681817054749,0.9956187605857849],"min":[0.024075539782643318,0.0053108930587768555],"type":"VEC2"},{"bufferView":57,"componentType":5123,"count":6504,"max":[1395],"min":[0],"type":"SCALAR"},{"bufferView":58,"componentType":5126,"count":1396,"max":[2.913851737976074,1.5660204887390137,1.468244194984436],"min":[-2.913851737976074,-6.204615116119385,-3.403289794921875],"type":"VEC3"},{"bufferView":59,"componentType":5126,"count":1396,"max":[1.0,1.0,1.0],"min":[-1.0,-1.0,-1.0],"type":"VEC3"},{"bufferView":60,"componentType":5126,"count":1396,"max":[1.0,1.0],"min":[0.0,0.0],"type":"VEC2"},{"bufferView":61,"componentType":5123,"count":3180,"max":[1263],"min":[0],"type":"SCALAR"},{"bufferView":62,"componentType":5126,"count":1264,"max":[2.6085386276245117,2.1767702102661133,1.5154380798339844],"min":[-2.6085386276245117,-1.4101676940917969,-1.6616021394729614],"type":"VEC3"},{"bufferView":63,"componentType":5126,"count":1264,"max":[0.9999712109565735,0.9994847774505615,0.9974209070205688],"min":[-0.9999726414680481,-0.9997220039367676,-0.9975298643112183],"type":"VEC3"},{"bufferView":64,"componentType":5126,"count":1264,"max":[0.5830676555633545,0.49000000953674316],"min":[0.01000000536441803,0.009999990463256836],"type":"VEC2"},{"bufferView":65,"componentType":5121,"count":480,"max":[139],"min":[0],"type":"SCALAR"},{"bufferView":66,"componentType":5126,"count":140,"max":[2.3887100219726562,2.415085792541504,1.3136310577392578],"min":[-2.3887100219726562,2.0590438842773438,-1.027572512626648],"type":"VEC3"},{"bufferView":67,"componentType":5126,"count":140,"max":[0.3031698763370514,0.9718163013458252,0.9390656352043152],"min":[-0.9921887516975403,-0.9718163013458252,-0.9390656352043152],"type":"VEC3"},{"bufferView":68,"componentType":5126,"count":140,"max":[1.0000001192092896,1.0],"min":[0.0,0.6249999403953552],"type":"VEC2"},{"bufferView":69,"componentType":5121,"count":72,"max":[31],"min":[0],"type":"SCALAR"},{"bufferView":70,"componentType":5126,"count":32,"max":[2.3834621906280518,2.409449577331543,1.3136310577392578],"min":[-2.3834621906280518,2.0590438842773438,-1.027572512626648],"type":"VEC3"},{"bufferView":71,"componentType":5126,"count":32,"max":[0.04944398254156113,0.9547762274742126,0.8242838382720947],"min":[-0.9364781379699707,-0.9547832608222961,-0.8242812156677246],"type":"VEC3"},{"bufferView":72,"componentType":5126,"count":32,"max":[1.4975128173828125,1.495077133178711],"min":[-0.4975113272666931,-0.49582386016845703],"type":"VEC2"},{"bufferView":73,"componentType":5121,"count":612,"max":[161],"min":[0],"type":"SCALAR"},{"bufferView":74,"componentType":5126,"count":162,"max":[1.9118351936340332,1.5963661670684814,1.0713696479797363],"min":[-1.9118351936340332,1.221078872680664,-0.939562201499939],"type":"VEC3"},{"bufferView":75,"componentType":5126,"count":162,"max":[0.802604079246521,-0.5916000604629517,0.5405440330505371],"min":[-0.802604079246521,-0.9894522428512573,-0.4519920349121094],"type":"VEC3"},{"bufferView":76,"componentType":5126,"count":162,"max":[2.3343005180358887,1.1779375076293945],"min":[-1.3343005180358887,0.031001627445220947],"type":"VEC2"}],"asset":{"generator":"Verge3D for Blender v4.12.0","version":"2.0"},"bufferViews":[{"buffer":0,"byteLength":36,"byteOffset":0,"target":34963},{"buffer":0,"byteLength":288,"byteOffset":36,"target":34962},{"buffer":0,"byteLength":288,"byteOffset":324,"target":34962},{"buffer":0,"byteLength":192,"byteOffset":612,"target":34962},{"buffer":0,"byteLength":36,"byteOffset":804,"target":34963},{"buffer":0,"byteLength":288,"byteOffset":840,"target":34962},{"buffer":0,"byteLength":288,"byteOffset":1128,"target":34962},{"buffer":0,"byteLength":192,"byteOffset":1416,"target":34962},{"buffer":0,"byteLength":36,"byteOffset":1608,"target":34963},{"buffer":0,"byteLength":288,"byteOffset":1644,"target":34962},{"buffer":0,"byteLength":288,"byteOffset":1932,"target":34962},{"buffer":0,"byteLength":192,"byteOffset":2220,"target":34962},{"buffer":0,"byteLength":36,"byteOffset":2412,"target":34963},{"buffer":0,"byteLength":288,"byteOffset":2448,"target":34962},{"buffer":0,"byteLength":288,"byteOffset":2736,"target":34962},{"buffer":0,"byteLength":192,"byteOffset":3024,"target":34962},{"buffer":0,"byteLength":36,"byteOffset":3216,"target":34963},{"buffer":0,"byteLength":288,"byteOffset":3252,"target":34962},{"buffer":0,"byteLength":288,"byteOffset":3540,"target":34962},{"buffer":0,"byteLength":192,"byteOffset":3828,"target":34962},{"buffer":0,"byteLength":8748,"byteOffset":4020,"target":34963},{"buffer":0,"byteLength":12648,"byteOffset":12768,"target":34962},{"buffer":0,"byteLength":12648,"byteOffset":25416,"target":34962},{"buffer":0,"byteLength":8432,"byteOffset":38064,"target":34962},{"buffer":0,"byteLength":10968,"byteOffset":46496,"target":34963},{"buffer":0,"byteLength":12960,"byteOffset":57464,"target":34962},{"buffer":0,"byteLength":12960,"byteOffset":70424,"target":34962},{"buffer":0,"byteLength":8640,"byteOffset":83384,"target":34962},{"buffer":0,"byteLength":4224,"byteOffset":92024,"target":34963},{"buffer":0,"byteLength":4632,"byteOffset":96248,"target":34962},{"buffer":0,"byteLength":4632,"byteOffset":100880,"target":34962},{"buffer":0,"byteLength":3088,"byteOffset":105512,"target":34962},{"buffer":0,"byteLength":4608,"byteOffset":108600,"target":34963},{"buffer":0,"byteLength":8304,"byteOffset":113208,"target":34962},{"buffer":0,"byteLength":8304,"byteOffset":121512,"target":34962},{"buffer":0,"byteLength":5536,"byteOffset":129816,"target":34962},{"buffer":0,"byteLength":330,"byteOffset":135352,"target":34963},{"buffer":0,"byteLength":1704,"byteOffset":135684,"target":34962},{"buffer":0,"byteLength":1704,"byteOffset":137388,"target":34962},{"buffer":0,"byteLength":1136,"byteOffset":139092,"target":34962},{"buffer":0,"byteLength":2304,"byteOffset":140228,"target":34963},{"buffer":0,"byteLength":3120,"byteOffset":142532,"target":34962},{"buffer":0,"byteLength":3120,"byteOffset":145652,"target":34962},{"buffer":0,"byteLength":4160,"byteOffset":148772,"target":34962},{"buffer":0,"byteLength":2080,"byteOffset":152932,"target":34962},{"buffer":0,"byteLength":54,"byteOffset":155012,"target":34963},{"buffer":0,"byteLength":216,"byteOffset":155068,"target":34962},{"buffer":0,"byteLength":216,"byteOffset":155284,"target":34962},{"buffer":0,"byteLength":144,"byteOffset":155500,"target":34962},{"buffer":0,"byteLength":480,"byteOffset":155644,"target":34963},{"buffer":0,"byteLength":1584,"byteOffset":156124,"target":34962},{"buffer":0,"byteLength":1584,"byteOffset":157708,"target":34962},{"buffer":0,"byteLength":1056,"byteOffset":159292,"target":34962},{"buffer":0,"byteLength":8736,"byteOffset":160348,"target":34963},{"buffer":0,"byteLength":9120,"byteOffset":169084,"target":34962},{"buffer":0,"byteLength":9120,"byteOffset":178204,"target":34962},{"buffer":0,"byteLength":6080,"byteOffset":187324,"target":34962},{"buffer":0,"byteLength":13008,"byteOffset":193404,"target":34963},{"buffer":0,"byteLength":16752,"byteOffset":206412,"target":34962},{"buffer":0,"byteLength":16752,"byteOffset":223164,"target":34962},{"buffer":0,"byteLength":11168,"byteOffset":239916,"target":34962},{"buffer":0,"byteLength":6360,"byteOffset":251084,"target":34963},{"buffer":0,"byteLength":15168,"byteOffset":257444,"target":34962},{"buffer":0,"byteLength":15168,"byteOffset":272612,"target":34962},{"buffer":0,"byteLength":10112,"byteOffset":287780,"target":34962},{"buffer":0,"byteLength":480,"byteOffset":297892,"target":34963},{"buffer":0,"byteLength":1680,"byteOffset":298372,"target":34962},{"buffer":0,"byteLength":1680,"byteOffset":300052,"target":34962},{"buffer":0,"byteLength":1120,"byteOffset":301732,"target":34962},{"buffer":0,"byteLength":72,"byteOffset":302852,"target":34963},{"buffer":0,"byteLength":384,"byteOffset":302924,"target":34962},{"buffer":0,"byteLength":384,"byteOffset":303308,"target":34962},{"buffer":0,"byteLength":256,"byteOffset":303692,"target":34962},{"buffer":0,"byteLength":612,"byteOffset":303948,"target":34963},{"buffer":0,"byteLength":1944,"byteOffset":304560,"target":34962},{"buffer":0,"byteLength":1944,"byteOffset":306504,"target":34962},{"buffer":0,"byteLength":1296,"byteOffset":308448,"target":34962}],"buffers":[{"byteLength":309744,"uri":"model.bin"}],"cameras":[{"extensions":{"S8S_v3d_camera":{"controls":"ORBIT","enablePan":true,"moveSpeed":1,"orbitMaxDistance":10000,"orbitMaxPolarAngle":3.141592653589793,"orbitMinDistance":0,"orbitMinPolarAngle":0,"orbitTarget":[-0.5145810842514038,0.6610363125801086,-0.007607907988131046],"rotateSpeed":1,"viewportFitInitialAspect":1,"viewportFitType":"VERTICAL"}},"name":"__DEFAULT__","perspective":{"aspectRatio":1,"yfov":0.7853981633974483,"zfar":1000.0,"znear":0.0010000000474974513},"type":"perspective"}],"extensions":{"S8S_v3d_lights":{"lights":[{"color":[1.0,1.0,1.0],"intensity":4.319290330138255,"name":"Sun","profile":"blender","shadow":{"bias":-0.0018,"cameraFar":100,"cameraFov":0,"cameraNear":0.1,"csm":{"count":4,"exponent":0.800000011920929,"fade":0.10000000149011612,"lightMargin":0.0,"maxDistance":1000.0},"enabled":true,"expBias":2.5,"mapSize":1024,"radius":1.0,"slopeScaledBias":2.5},"type":"directional"}]}},"extensionsUsed":["S8S_v3d_texture","S8S_v3d_materials","S8S_v3d_camera","S8S_v3d_lights","S8S_v3d_mesh","S8S_v3d_node","S8S_v3d_scene"],"images":[{"uri":"v3d_exported_image_image_2.png"},{"uri":"v3d_exported_image_image_0.png"},{"uri":"v3d_exported_image_image_1.png"},{"uri":"v3d_exported_image_image_3.png"},{"uri":"v3d_exported_image_image_4.jpeg"},{"uri":"v3d_exported_image_image_6.png"},{"uri":"v3d_exported_image_image_5.png"}],"materials":[{"alphaMode":"OPAQUE","extensions":{"S8S_v3d_materials":{"gtaoVisible":true,"materialIndex":0,"nodeGraph":{"edges":[{"fromNode":0,"fromOutput":0,"toInput":0,"toNode":1},{"fromNode":2,"fromOutput":0,"toInput":0,"toNode":0},{"fromNode":3,"fromOutput":0,"toInput":0,"toNode":2},{"fromNode":4,"fromOutput":0,"toInput":0,"toNode":3}],"nodes":[{"inputs":[[0.800000011920929,0.800000011920929,0.800000011920929,1.0],0.0,0.6318179965019226,1.5,1.0,[0.0,0.0,0.0],0.0,0.0,[1.0,0.20000000298023224,0.10000000149011612],0.05000000074505806,1.399999976158142,0.0,0.5,[1.0,1.0,1.0,1.0],0.0,0.0,[0.0,0.0,0.0],0.0,0.0,0.029999999329447746,1.5,[1.0,1.0,1.0,1.0],[0.0,0.0,0.0],0.0,0.5,[1.0,1.0,1.0,1.0],[1.0,1.0,1.0,1.0],0.0,0.0,1.3300000429153442],"is_active_output":false,"name":"Principled BSDF","outputs":[[0,0,0,0]],"type":"BSDF_PRINCIPLED_BL"},{"inputs":[[0,0,0,0],[0,0,0,0],[0.0,0.0,0.0],0.0],"is_active_output":true,"name":"Material Output","outputs":[],"type":"OUTPUT_MATERIAL_BL"},{"alphaMode":"CHANNEL_PACKED","inputs":[[0.0,0.0,0.0]],"is_active_output":false,"name":"Image Texture","outputs":[[0.800000011920929,0.800000011920929,0.800000011920929,1.0],0.0],"projection":"FLAT","projectionBlend":0.0,"texture":0,"type":"TEX_IMAGE_BL"},{"inputs":[[0.0,0.0,0.0],[0.0,-3.5,0.0],[0.0,0.0,0.0],[4.5,4.5,1.0]],"is_active_output":false,"name":"Mapping","outputs":[[0.0,0.0,0.0]],"type":"MAPPING_BL","vectorType":"POINT"},{"inputs":[],"is_active_output":false,"name":"UV Map","outputs":[[0.0,0.0,0.0]],"type":"UVMAP_BL","uvLayer":"UVMap"}]}}},"name":"Quest_Foam"},{"alphaMode":"OPAQUE","extensions":{"S8S_v3d_materials":{"gtaoVisible":true,"materialIndex":0,"nodeGraph":{"edges":[{"fromNode":0,"fromOutput":0,"toInput":0,"toNode":1},{"fromNode":2,"fromOutput":0,"toInput":0,"toNode":0},{"fromNode":3,"fromOutput":0,"toInput":1,"toNode":0},{"fromNode":4,"fromOutput":2,"toInput":0,"toNode":3},{"fromNode":4,"fromOutput":1,"toInput":2,"toNode":0},{"fromNode":5,"fromOutput":0,"toInput":0,"toNode":4}],"nodes":[{"inputs":[[0.800000011920929,0.800000011920929,0.800000011920929,1.0],0.0,0.5,1.5,1.0,[0.0,0.0,0.0],0.0,0.0,[1.0,0.20000000298023224,0.10000000149011612],0.05000000074505806,1.399999976158142,0.0,0.5,[1.0,1.0,1.0,1.0],0.0,0.0,[0.0,0.0,0.0],0.0,0.0,0.029999999329447746,1.5,[1.0,1.0,1.0,1.0],[0.0,0.0,0.0],0.0,0.5,[1.0,1.0,1.0,1.0],[1.0,1.0,1.0,1.0],0.0,0.0,1.3300000429153442],"is_active_output":false,"name":"Principled BSDF","outputs":[[0,0,0,0]],"type":"BSDF_PRINCIPLED_BL"},{"inputs":[[0,0,0,0],[0,0,0,0],[0.0,0.0,0.0],0.0],"is_active_output":true,"name":"Material Output","outputs":[],"type":"OUTPUT_MATERIAL_BL"},{"alphaMode":"CHANNEL_PACKED","inputs":[[0.0,0.0,0.0]],"is_active_output":false,"name":"Image Texture","outputs":[[0.800000011920929,0.800000011920929,0.800000011920929,1.0],0.0],"projection":"FLAT","projectionBlend":0.0,"texture":1,"type":"TEX_IMAGE_BL"},{"inputs":[0.5,0.0,0.5],"is_active_output":false,"name":"Math","operation":"MULTIPLY","outputs":[0.0],"type":"MATH_BL","useClamp":false},{"inputs":[[0.800000011920929,0.800000011920929,0.800000011920929,1.0]],"is_active_output":false,"mode":"RGB","name":"Separate Color","outputs":[0.0,0.0,0.0],"type":"SEPARATE_COLOR_BL"},{"alphaMode":"CHANNEL_PACKED","inputs":[[0.0,0.0,0.0]],"is_active_output":false,"name":"Image Texture.001","outputs":[[0.800000011920929,0.800000011920929,0.800000011920929,1.0],0.0],"projection":"FLAT","projectionBlend":0.0,"texture":2,"type":"TEX_IMAGE_BL"}]}}},"name":"Quest_Front"},{"alphaMode":"OPAQUE","extensions":{"S8S_v3d_materials":{"gtaoVisible":true,"materialIndex":0,"nodeGraph":{"edges":[{"fromNode":0,"fromOutput":0,"toInput":0,"toNode":1}],"nodes":[{"inputs":[[0.003095440100878477,0.003095440100878477,0.003095440100878477,1.0],0.0,0.5,1.5,1.0,[0.0,0.0,0.0],0.0,0.0,[1.0,0.20000000298023224,0.10000000149011612],0.05000000074505806,1.399999976158142,0.0,0.5,[1.0,1.0,1.0,1.0],0.0,0.0,[0.0,0.0,0.0],0.0,0.0,0.029999999329447746,1.5,[1.0,1.0,1.0,1.0],[0.0,0.0,0.0],0.0,0.5,[1.0,1.0,1.0,1.0],[1.0,1.0,1.0,1.0],0.0,0.0,1.3300000429153442],"is_active_output":false,"name":"Principled BSDF","outputs":[[0,0,0,0]],"type":"BSDF_PRINCIPLED_BL"},{"inputs":[[0,0,0,0],[0,0,0,0],[0.0,0.0,0.0],0.0],"is_active_output":true,"name":"Material Output","outputs":[],"type":"OUTPUT_MATERIAL_BL"}]}}},"name":"Quest_Gummi_Linse"},{"alphaMode":"OPAQUE","extensions":{"S8S_v3d_materials":{"gtaoVisible":true,"materialIndex":0,"nodeGraph":{"edges":[{"fromNode":0,"fromOutput":0,"toInput":0,"toNode":1},{"fromNode":2,"fromOutput":0,"toInput":1,"toNode":0},{"fromNode":3,"fromOutput":2,"toInput":0,"toNode":2},{"fromNode":3,"fromOutput":1,"toInput":2,"toNode":0},{"fromNode":4,"fromOutput":0,"toInput":0,"toNode":3}],"nodes":[{"inputs":[[0.0023973260540515184,0.0023973260540515184,0.0023973260540515184,1.0],0.0,0.5,1.5,1.0,[0.0,0.0,0.0],0.0,0.0,[1.0,0.20000000298023224,0.10000000149011612],0.05000000074505806,1.399999976158142,0.0,0.5,[1.0,1.0,1.0,1.0],0.0,0.0,[0.0,0.0,0.0],0.0,0.0,0.029999999329447746,1.5,[1.0,1.0,1.0,1.0],[0.0,0.0,0.0],0.0,0.5,[1.0,1.0,1.0,1.0],[1.0,1.0,1.0,1.0],0.0,0.0,1.3300000429153442],"is_active_output":false,"name":"Principled BSDF","outputs":[[0,0,0,0]],"type":"BSDF_PRINCIPLED_BL"},{"inputs":[[0,0,0,0],[0,0,0,0],[0.0,0.0,0.0],0.0],"is_active_output":true,"name":"Material Output","outputs":[],"type":"OUTPUT_MATERIAL_BL"},{"inputs":[0.5,0.0,0.5],"is_active_output":false,"name":"Math","operation":"MULTIPLY","outputs":[0.0],"type":"MATH_BL","useClamp":false},{"inputs":[[0.800000011920929,0.800000011920929,0.800000011920929,1.0]],"is_active_output":false,"mode":"RGB","name":"Separate Color","outputs":[0.0,0.0,0.0],"type":"SEPARATE_COLOR_BL"},{"alphaMode":"CHANNEL_PACKED","inputs":[[0.0,0.0,0.0]],"is_active_output":false,"name":"Image Texture","outputs":[[0.800000011920929,0.800000011920929,0.800000011920929,1.0],0.0],"projection":"FLAT","projectionBlend":0.0,"texture":3,"type":"TEX_IMAGE_BL"}]}}},"name":"Quest_Headstrap"},{"alphaMode":"OPAQUE","extensions":{"S8S_v3d_materials":{"gtaoVisible":true,"materialIndex":0,"nodeGraph":{"edges":[{"fromNode":0,"fromOutput":0,"toInput":0,"toNode":1},{"fromNode":2,"fromOutput":0,"toInput":0,"toNode":0},{"fromNode":3,"fromOutput":0,"toInput":0,"toNode":2},{"fromNode":4,"fromOutput":0,"toInput":0,"toNode":3}],"nodes":[{"inputs":[[0.800000011920929,0.800000011920929,0.800000011920929,1.0],0.0,0.5636360049247742,1.5,1.0,[0.0,0.0,0.0],0.0,0.0,[1.0,0.20000000298023224,0.10000000149011612],0.05000000074505806,1.399999976158142,0.0,0.5,[1.0,1.0,1.0,1.0],0.0,0.0,[0.0,0.0,0.0],0.0,0.0,0.029999999329447746,1.5,[1.0,1.0,1.0,1.0],[0.0,0.0,0.0],0.0,0.5,[1.0,1.0,1.0,1.0],[1.0,1.0,1.0,1.0],0.0,0.0,1.3300000429153442],"is_active_output":false,"name":"Principled BSDF","outputs":[[0,0,0,0]],"type":"BSDF_PRINCIPLED_BL"},{"inputs":[[0,0,0,0],[0,0,0,0],[0.0,0.0,0.0],0.0],"is_active_output":true,"name":"Material Output","outputs":[],"type":"OUTPUT_MATERIAL_BL"},{"alphaMode":"CHANNEL_PACKED","inputs":[[0.0,0.0,0.0]],"is_active_output":false,"name":"Image Texture","outputs":[[0.800000011920929,0.800000011920929,0.800000011920929,1.0],0.0],"projection":"FLAT","projectionBlend":0.0,"texture":4,"type":"TEX_IMAGE_BL"},{"inputs":[[0.0,0.0,0.0],[0.24289241433143616,0.24478478729724884,0.0],[0.0,0.0,0.0],[0.5,0.5,1.0]],"is_active_output":false,"name":"Mapping","outputs":[[0.0,0.0,0.0]],"type":"MAPPING_BL","vectorType":"POINT"},{"inputs":[],"is_active_output":false,"name":"UV Map","outputs":[[0.0,0.0,0.0]],"type":"UVMAP_BL","uvLayer":"UVMap"}]}}},"name":"Quest_Kamera"},{"alphaMode":"BLEND","extensions":{"S8S_v3d_materials":{"gtaoVisible":true,"materialIndex":0,"nodeGraph":{"edges":[{"fromNode":0,"fromOutput":0,"toInput":0,"toNode":1}],"nodes":[{"inputs":[[0.0,0.0,0.0,1.0],0.0,0.0,1.5,0.25,[0.0,0.0,0.0],0.0,0.0,[1.0,0.20000000298023224,0.10000000149011612],0.05000000074505806,1.399999976158142,0.0,0.5,[1.0,1.0,1.0,1.0],0.0,0.0,[0.0,0.0,0.0],0.9416937828063965,0.0,0.029999999329447746,1.5,[1.0,1.0,1.0,1.0],[0.0,0.0,0.0],0.0,0.5,[1.0,1.0,1.0,1.0],[1.0,1.0,1.0,1.0],0.0,0.0,1.3300000429153442],"is_active_output":false,"name":"Principled BSDF","outputs":[[0,0,0,0]],"type":"BSDF_PRINCIPLED_BL"},{"inputs":[[0,0,0,0],[0,0,0,0],[0.0,0.0,0.0],0.0],"is_active_output":true,"name":"Material Output","outputs":[],"type":"OUTPUT_MATERIAL_BL"}]}}},"name":"Quest_Kamera_Linsen"},{"alphaMode":"OPAQUE","extensions":{"S8S_v3d_materials":{"gtaoVisible":true,"materialIndex":0,"nodeGraph":{"edges":[{"fromNode":0,"fromOutput":0,"toInput":0,"toNode":1}],"nodes":[{"inputs":[[0.009018169716000557,0.009018169716000557,0.009018169716000557,1.0],0.0,0.43636399507522583,1.5,1.0,[0.0,0.0,0.0],0.0,0.0,[1.0,0.20000000298023224,0.10000000149011612],0.05000000074505806,1.399999976158142,0.0,0.5,[1.0,1.0,1.0,1.0],0.0,0.0,[0.0,0.0,0.0],0.0,0.0,0.029999999329447746,1.5,[1.0,1.0,1.0,1.0],[0.0,0.0,0.0],0.0,0.5,[1.0,1.0,1.0,1.0],[1.0,1.0,1.0,1.0],0.0,0.0,1.3300000429153442],"is_active_output":false,"name":"Principled BSDF","outputs":[[0,0,0,0]],"type":"BSDF_PRINCIPLED_BL"},{"inputs":[[0,0,0,0],[0,0,0,0],[0.0,0.0,0.0],0.0],"is_active_output":true,"name":"Material Output","outputs":[],"type":"OUTPUT_MATERIAL_BL"}]}}},"name":"Quest_Lautstrketaste"},{"alphaMode":"BLEND","extensions":{"S8S_v3d_materials":{"gtaoVisible":true,"materialIndex":0,"nodeGraph":{"edges":[{"fromNode":0,"fromOutput":0,"toInput":0,"toNode":1},{"fromNode":2,"fromOutput":0,"toInput":5,"toNode":0},{"fromNode":3,"fromOutput":0,"toInput":1,"toNode":2}],"nodes":[{"inputs":[[0.800000011920929,0.800000011920929,0.800000011920929,1.0],0.0,0.0,1.5,0.25,[0.0,0.0,0.0],0.0,0.0,[1.0,0.20000000298023224,0.10000000149011612],0.05000000074505806,1.399999976158142,0.0,0.5,[1.0,1.0,1.0,1.0],0.0,0.0,[0.0,0.0,0.0],1.0,0.0,0.029999999329447746,1.5,[1.0,1.0,1.0,1.0],[0.0,0.0,0.0],0.0,0.5,[1.0,1.0,1.0,1.0],[1.0,1.0,1.0,1.0],0.0,0.0,1.3300000429153442],"is_active_output":false,"name":"Principled BSDF","outputs":[[0,0,0,0]],"type":"BSDF_PRINCIPLED_BL"},{"inputs":[[0,0,0,0],[0,0,0,0],[0.0,0.0,0.0],0.0],"is_active_output":true,"name":"Material Output","outputs":[],"type":"OUTPUT_MATERIAL_BL"},{"inputs":[0.46655407547950745,[0.5,0.5,1.0,1.0]],"is_active_output":false,"name":"Normal Map","outputs":[[0.0,0.0,0.0]],"type":"NORMAL_MAP_BL","uvLayer":"UVMap"},{"alphaMode":"CHANNEL_PACKED","inputs":[[0.0,0.0,0.0]],"is_active_output":false,"name":"Image Texture","outputs":[[0.800000011920929,0.800000011920929,0.800000011920929,1.0],0.0],"projection":"FLAT","projectionBlend":0.0,"texture":5,"type":"TEX_IMAGE_BL"}]}}},"name":"Quest_Linsen"},{"alphaMode":"OPAQUE","extensions":{"S8S_v3d_materials":{"gtaoVisible":true,"materialIndex":0,"nodeGraph":{"edges":[{"fromNode":0,"fromOutput":0,"toInput":0,"toNode":1}],"nodes":[{"inputs":[[0.003095440100878477,0.003095440100878477,0.003095440100878477,1.0],0.0,0.8416669964790344,1.5,1.0,[0.0,0.0,0.0],0.0,0.0,[1.0,0.20000000298023224,0.10000000149011612],0.05000000074505806,1.399999976158142,0.0,0.5,[1.0,1.0,1.0,1.0],0.0,0.0,[0.0,0.0,0.0],0.0,0.0,0.029999999329447746,1.5,[1.0,1.0,1.0,1.0],[0.0,0.0,0.0],0.0,0.5,[1.0,1.0,1.0,1.0],[1.0,1.0,1.0,1.0],0.0,0.0,1.3300000429153442],"is_active_output":false,"name":"Principled BSDF","outputs":[[0,0,0,0]],"type":"BSDF_PRINCIPLED_BL"},{"inputs":[[0,0,0,0],[0,0,0,0],[0.0,0.0,0.0],0.0],"is_active_output":true,"name":"Material Output","outputs":[],"type":"OUTPUT_MATERIAL_BL"}]}}},"name":"Quest_Plastik"},{"alphaMode":"OPAQUE","extensions":{"S8S_v3d_materials":{"gtaoVisible":true,"materialIndex":0,"nodeGraph":{"edges":[{"fromNode":0,"fromOutput":0,"toInput":0,"toNode":1}],"nodes":[{"inputs":[[0.007202620152384043,0.007202620152384043,0.007202620152384043,1.0],0.0,0.945455014705658,1.5,1.0,[0.0,0.0,0.0],0.0,0.0,[1.0,0.20000000298023224,0.10000000149011612],0.05000000074505806,1.399999976158142,0.0,0.5,[1.0,1.0,1.0,1.0],0.0,0.0,[0.0,0.0,0.0],0.0,0.0,0.029999999329447746,1.5,[1.0,1.0,1.0,1.0],[0.0,0.0,0.0],0.0,0.5,[1.0,1.0,1.0,1.0],[1.0,1.0,1.0,1.0],0.0,0.0,1.3300000429153442],"is_active_output":false,"name":"Principled BSDF","outputs":[[0,0,0,0]],"type":"BSDF_PRINCIPLED_BL"},{"inputs":[[0,0,0,0],[0,0,0,0],[0.0,0.0,0.0],0.0],"is_active_output":true,"name":"Material Output","outputs":[],"type":"OUTPUT_MATERIAL_BL"}]}}},"name":"Quest_Samt"},{"alphaMode":"OPAQUE","extensions":{"S8S_v3d_materials":{"gtaoVisible":true,"materialIndex":0,"nodeGraph":{"edges":[{"fromNode":0,"fromOutput":0,"toInput":0,"toNode":1}],"nodes":[{"inputs":[[0.021046100184321404,0.021046100184321404,0.021046100184321404,1.0],0.0,0.945455014705658,1.5,1.0,[0.0,0.0,0.0],0.0,0.0,[1.0,0.20000000298023224,0.10000000149011612],0.05000000074505806,1.399999976158142,0.0,0.5,[1.0,1.0,1.0,1.0],0.0,0.0,[0.0,0.0,0.0],0.0,0.0,0.029999999329447746,1.5,[1.0,1.0,1.0,1.0],[0.0,0.0,0.0],0.0,0.5,[1.0,1.0,1.0,1.0],[1.0,1.0,1.0,1.0],0.0,0.0,1.3300000429153442],"is_active_output":false,"name":"Principled BSDF","outputs":[[0,0,0,0]],"type":"BSDF_PRINCIPLED_BL"},{"inputs":[[0,0,0,0],[0,0,0,0],[0.0,0.0,0.0],0.0],"is_active_output":true,"name":"Material Output","outputs":[],"type":"OUTPUT_MATERIAL_BL"}]}}},"name":"Quest_Samt_2"},{"alphaMode":"OPAQUE","extensions":{"S8S_v3d_materials":{"gtaoVisible":true,"materialIndex":0,"nodeGraph":{"edges":[{"fromNode":0,"fromOutput":0,"toInput":0,"toNode":1},{"fromNode":2,"fromOutput":0,"toInput":26,"toNode":0},{"fromNode":3,"fromOutput":0,"toInput":0,"toNode":0}],"nodes":[{"inputs":[[0.800000011920929,0.800000011920929,0.800000011920929,1.0],0.0,0.5,1.5,1.0,[0.0,0.0,0.0],0.0,0.0,[1.0,0.20000000298023224,0.10000000149011612],0.05000000074505806,1.399999976158142,0.0,0.5,[1.0,1.0,1.0,1.0],0.0,0.0,[0.0,0.0,0.0],0.0,0.0,0.029999999329447746,1.5,[1.0,1.0,1.0,1.0],[0.0,0.0,0.0],0.0,0.5,[1.0,1.0,1.0,1.0],[1.0,1.0,1.0,1.0],1.0,0.0,1.3300000429153442],"is_active_output":false,"name":"Principled BSDF","outputs":[[0,0,0,0]],"type":"BSDF_PRINCIPLED_BL"},{"inputs":[[0,0,0,0],[0,0,0,0],[0.0,0.0,0.0],0.0],"is_active_output":true,"name":"Material Output","outputs":[],"type":"OUTPUT_MATERIAL_BL"},{"alphaMode":"CHANNEL_PACKED","inputs":[[0.0,0.0,0.0]],"is_active_output":false,"name":"Image Texture","outputs":[[0.800000011920929,0.800000011920929,0.800000011920929,1.0],0.0],"projection":"FLAT","projectionBlend":0.0,"texture":6,"type":"TEX_IMAGE_BL"},{"alphaMode":"CHANNEL_PACKED","inputs":[[0.0,0.0,0.0]],"is_active_output":false,"name":"Image Texture.001","outputs":[[0.800000011920929,0.800000011920929,0.800000011920929,1.0],0.0],"projection":"FLAT","projectionBlend":0.0,"texture":6,"type":"TEX_IMAGE_BL"}]}}},"name":"Quest_Screen"},{"alphaMode":"OPAQUE","extensions":{"S8S_v3d_materials":{"gtaoVisible":true,"materialIndex":0,"nodeGraph":{"edges":[{"fromNode":0,"fromOutput":0,"toInput":0,"toNode":1}],"nodes":[{"inputs":[[0.27383100986480713,0.27383100986480713,0.27383100986480713,1.0],1.0,0.5,1.5,1.0,[0.0,0.0,0.0],0.0,0.0,[1.0,0.20000000298023224,0.10000000149011612],0.05000000074505806,1.399999976158142,0.0,0.5,[1.0,1.0,1.0,1.0],0.0,0.0,[0.0,0.0,0.0],0.0,0.0,0.029999999329447746,1.5,[1.0,1.0,1.0,1.0],[0.0,0.0,0.0],0.0,0.5,[1.0,1.0,1.0,1.0],[1.0,1.0,1.0,1.0],0.0,0.0,1.3300000429153442],"is_active_output":false,"name":"Principled BSDF","outputs":[[0,0,0,0]],"type":"BSDF_PRINCIPLED_BL"},{"inputs":[[0,0,0,0],[0,0,0,0],[0.0,0.0,0.0],0.0],"is_active_output":true,"name":"Material Output","outputs":[],"type":"OUTPUT_MATERIAL_BL"}]}}},"name":"Quest_Stecker"},{"alphaMode":"OPAQUE","extensions":{"S8S_v3d_materials":{"gtaoVisible":true,"materialIndex":0,"nodeGraph":{"edges":[{"fromNode":0,"fromOutput":0,"toInput":0,"toNode":1}],"nodes":[{"inputs":[[0.013768100179731846,0.014220800250768661,0.01835170015692711,1.0],0.0,0.7363640069961548,1.5,1.0,[0.0,0.0,0.0],0.0,0.0,[1.0,0.20000000298023224,0.10000000149011612],0.05000000074505806,1.399999976158142,0.0,0.5,[1.0,1.0,1.0,1.0],0.0,0.0,[0.0,0.0,0.0],0.0,0.0,0.029999999329447746,1.5,[1.0,1.0,1.0,1.0],[0.0,0.0,0.0],0.0,0.5,[1.0,1.0,1.0,1.0],[1.0,1.0,1.0,1.0],0.0,0.0,1.3300000429153442],"is_active_output":false,"name":"Principled BSDF","outputs":[[0,0,0,0]],"type":"BSDF_PRINCIPLED_BL"},{"inputs":[[0,0,0,0],[0,0,0,0],[0.0,0.0,0.0],0.0],"is_active_output":true,"name":"Material Output","outputs":[],"type":"OUTPUT_MATERIAL_BL"}]}}},"name":"Quest_Stoff"},{"alphaMode":"OPAQUE","extensions":{"S8S_v3d_materials":{"gtaoVisible":true,"materialIndex":0,"nodeGraph":{"edges":[{"fromNode":2,"fromOutput":0,"toInput":2,"toNode":1},{"fromNode":1,"fromOutput":0,"toInput":0,"toNode":0}],"nodes":[{"inputs":[[0,0,0,0],[0,0,0,0],[0.0,0.0,0.0],0.0],"is_active_output":true,"name":"Material Output","outputs":[],"type":"OUTPUT_MATERIAL_BL"},{"inputs":[[0.35832056403160095,0.35832056403160095,0.35832056403160095,1.0],0.0,0.37727272510528564,1.4500000476837158,1.0,[0.0,0.0,0.0],0.0,0.0,[1.0,0.20000000298023224,0.10000000149011612],0.05000000074505806,1.399999976158142,0.0,0.5,[1.0,1.0,1.0,1.0],0.0,0.0,[0.0,0.0,0.0],0.0,0.0,0.029999999329447746,1.5,[1.0,1.0,1.0,1.0],[0.0,0.0,0.0],0.0,0.5,[1.0,1.0,1.0,1.0],[0.0,0.0,0.0,1.0],1.0,0.0,1.3300000429153442],"is_active_output":false,"name":"Principled BSDF","outputs":[[0,0,0,0]],"type":"BSDF_PRINCIPLED_BL"},{"inputs":[[0.0,0.0,0.0]],"is_active_output":false,"name":"Image Texture","outputs":[[0.0,0.0,0.0,0.0],0.0],"projection":"FLAT","projectionBlend":0.0,"type":"TEX_IMAGE_NONE_BL"}]}}},"name":"rap0"},{"alphaMode":"OPAQUE","extensions":{"S8S_v3d_materials":{"gtaoVisible":true,"materialIndex":0,"nodeGraph":{"edges":[{"fromNode":2,"fromOutput":0,"toInput":2,"toNode":1},{"fromNode":1,"fromOutput":0,"toInput":0,"toNode":0}],"nodes":[{"inputs":[[0,0,0,0],[0,0,0,0],[0.0,0.0,0.0],0.0],"is_active_output":true,"name":"Material Output","outputs":[],"type":"OUTPUT_MATERIAL_BL"},{"inputs":[[0.3583316504955292,0.1691248118877411,0.16301792860031128,1.0],0.0,0.37727272510528564,1.4500000476837158,1.0,[0.0,0.0,0.0],0.0,0.0,[1.0,0.20000000298023224,0.10000000149011612],0.05000000074505806,1.399999976158142,0.0,0.5,[1.0,1.0,1.0,1.0],0.0,0.0,[0.0,0.0,0.0],0.0,0.0,0.029999999329447746,1.5,[1.0,1.0,1.0,1.0],[0.0,0.0,0.0],0.0,0.5,[1.0,1.0,1.0,1.0],[0.0,0.0,0.0,1.0],1.0,0.0,1.3300000429153442],"is_active_output":false,"name":"Principled BSDF","outputs":[[0,0,0,0]],"type":"BSDF_PRINCIPLED_BL"},{"inputs":[[0.0,0.0,0.0]],"is_active_output":false,"name":"Image Texture","outputs":[[0.0,0.0,0.0,0.0],0.0],"projection":"FLAT","projectionBlend":0.0,"type":"TEX_IMAGE_NONE_BL"}]}}},"name":"rap1"},{"alphaMode":"OPAQUE","extensions":{"S8S_v3d_materials":{"gtaoVisible":true,"materialIndex":0,"nodeGraph":{"edges":[{"fromNode":2,"fromOutput":0,"toInput":2,"toNode":1},{"fromNode":1,"fromOutput":0,"toInput":0,"toNode":0}],"nodes":[{"inputs":[[0,0,0,0],[0,0,0,0],[0.0,0.0,0.0],0.0],"is_active_output":true,"name":"Material Output","outputs":[],"type":"OUTPUT_MATERIAL_BL"},{"inputs":[[0.11311182379722595,0.11667132377624512,0.35832637548446655,1.0],0.0,0.37727272510528564,1.4500000476837158,1.0,[0.0,0.0,0.0],0.0,0.0,[1.0,0.20000000298023224,0.10000000149011612],0.05000000074505806,1.399999976158142,0.0,0.5,[1.0,1.0,1.0,1.0],0.0,0.0,[0.0,0.0,0.0],0.0,0.0,0.029999999329447746,1.5,[1.0,1.0,1.0,1.0],[0.0,0.0,0.0],0.0,0.5,[1.0,1.0,1.0,1.0],[0.0,0.0,0.0,1.0],1.0,0.0,1.3300000429153442],"is_active_output":false,"name":"Principled BSDF","outputs":[[0,0,0,0]],"type":"BSDF_PRINCIPLED_BL"},{"inputs":[[0.0,0.0,0.0]],"is_active_output":false,"name":"Image Texture","outputs":[[0.0,0.0,0.0,0.0],0.0],"projection":"FLAT","projectionBlend":0.0,"type":"TEX_IMAGE_NONE_BL"}]}}},"name":"rap2"},{"alphaMode":"OPAQUE","extensions":{"S8S_v3d_materials":{"gtaoVisible":true,"materialIndex":0,"nodeGraph":{"edges":[{"fromNode":2,"fromOutput":0,"toInput":2,"toNode":1},{"fromNode":1,"fromOutput":0,"toInput":0,"toNode":0}],"nodes":[{"inputs":[[0,0,0,0],[0,0,0,0],[0.0,0.0,0.0],0.0],"is_active_output":true,"name":"Material Output","outputs":[],"type":"OUTPUT_MATERIAL_BL"},{"inputs":[[0.32775282859802246,0.3583345115184784,0.08034127950668335,1.0],0.0,0.37727272510528564,1.4500000476837158,1.0,[0.0,0.0,0.0],0.0,0.0,[1.0,0.20000000298023224,0.10000000149011612],0.05000000074505806,1.399999976158142,0.0,0.5,[1.0,1.0,1.0,1.0],0.0,0.0,[0.0,0.0,0.0],0.0,0.0,0.029999999329447746,1.5,[1.0,1.0,1.0,1.0],[0.0,0.0,0.0],0.0,0.5,[1.0,1.0,1.0,1.0],[0.0,0.0,0.0,1.0],1.0,0.0,1.3300000429153442],"is_active_output":false,"name":"Principled BSDF","outputs":[[0,0,0,0]],"type":"BSDF_PRINCIPLED_BL"},{"inputs":[[0.0,0.0,0.0]],"is_active_output":false,"name":"Image Texture","outputs":[[0.0,0.0,0.0,0.0],0.0],"projection":"FLAT","projectionBlend":0.0,"type":"TEX_IMAGE_NONE_BL"}]}}},"name":"rap3"},{"alphaMode":"OPAQUE","extensions":{"S8S_v3d_materials":{"gtaoVisible":true,"materialIndex":0,"nodeGraph":{"edges":[{"fromNode":2,"fromOutput":0,"toInput":2,"toNode":1},{"fromNode":1,"fromOutput":0,"toInput":0,"toNode":0}],"nodes":[{"inputs":[[0,0,0,0],[0,0,0,0],[0.0,0.0,0.0],0.0],"is_active_output":true,"name":"Material Output","outputs":[],"type":"OUTPUT_MATERIAL_BL"},{"inputs":[[0.09555980563163757,0.3583233952522278,0.19595924019813538,1.0],0.0,0.37727272510528564,1.4500000476837158,1.0,[0.0,0.0,0.0],0.0,0.0,[1.0,0.20000000298023224,0.10000000149011612],0.05000000074505806,1.399999976158142,0.0,0.5,[1.0,1.0,1.0,1.0],0.0,0.0,[0.0,0.0,0.0],0.0,0.0,0.029999999329447746,1.5,[1.0,1.0,1.0,1.0],[0.0,0.0,0.0],0.0,0.5,[1.0,1.0,1.0,1.0],[0.0,0.0,0.0,1.0],1.0,0.0,1.3300000429153442],"is_active_output":false,"name":"Principled BSDF","outputs":[[0,0,0,0]],"type":"BSDF_PRINCIPLED_BL"},{"inputs":[[0.0,0.0,0.0]],"is_active_output":false,"name":"Image Texture","outputs":[[0.0,0.0,0.0,0.0],0.0],"projection":"FLAT","projectionBlend":0.0,"type":"TEX_IMAGE_NONE_BL"}]}}},"name":"rap4"},{"alphaMode":"OPAQUE","extensions":{"S8S_v3d_materials":{"gtaoVisible":true,"materialIndex":0,"nodeGraph":{"edges":[{"fromNode":1,"fromOutput":0,"toInput":0,"toNode":0}],"nodes":[{"inputs":[[0,0,0,0],[0,0,0,0]],"is_active_output":true,"name":"World Output","outputs":[],"type":"OUTPUT_WORLD_BL"},{"inputs":[[0.05087608844041824,0.05087608844041824,0.05087608844041824,1.0],8.399999618530273],"is_active_output":false,"name":"Background","outputs":[[0,0,0,0]],"type":"BACKGROUND_BL"}]}}},"name":"Verge3D_Environment_World"}],"meshes":[{"extensions":{"S8S_v3d_mesh":{"colorLayers":{},"uvLayers":{"UVMap":"TEXCOORD_0"}}},"name":"Cube","primitives":[{"attributes":{"NORMAL":2,"POSITION":1,"TEXCOORD_0":3},"indices":0,"material":14,"mode":4}]},{"extensions":{"S8S_v3d_mesh":{"colorLayers":{},"uvLayers":{"UVMap":"TEXCOORD_0"}}},"name":"Cube.001","primitives":[{"attributes":{"NORMAL":6,"POSITION":5,"TEXCOORD_0":7},"indices":4,"material":15,"mode":4}]},{"extensions":{"S8S_v3d_mesh":{"colorLayers":{},"uvLayers":{"UVMap":"TEXCOORD_0"}}},"name":"Cube.002","primitives":[{"attributes":{"NORMAL":10,"POSITION":9,"TEXCOORD_0":11},"indices":8,"material":16,"mode":4}]},{"extensions":{"S8S_v3d_mesh":{"colorLayers":{},"uvLayers":{"UVMap":"TEXCOORD_0"}}},"name":"Cube.003","primitives":[{"attributes":{"NORMAL":14,"POSITION":13,"TEXCOORD_0":15},"indices":12,"material":17,"mode":4}]},{"extensions":{"S8S_v3d_mesh":{"colorLayers":{},"uvLayers":{"UVMap":"TEXCOORD_0"}}},"name":"Cube.004","primitives":[{"attributes":{"NORMAL":18,"POSITION":17,"TEXCOORD_0":19},"indices":16,"material":18,"mode":4}]},{"extensions":{"S8S_v3d_mesh":{"colorLayers":{},"uvLayers":{"UVMap":"TEXCOORD_0"}}},"name":"Object_0","primitives":[{"attributes":{"NORMAL":22,"POSITION":21,"TEXCOORD_0":23},"indices":20,"material":1,"mode":4}]},{"extensions":{"S8S_v3d_mesh":{"colorLayers":{},"uvLayers":{"UVMap":"TEXCOORD_0"}}},"name":"Object_1","primitives":[{"attributes":{"NORMAL":26,"POSITION":25,"TEXCOORD_0":27},"indices":24,"material":13,"mode":4}]},{"extensions":{"S8S_v3d_mesh":{"colorLayers":{},"uvLayers":{"UVMap":"TEXCOORD_0"}}},"name":"Object_10","primitives":[{"attributes":{"NORMAL":30,"POSITION":29,"TEXCOORD_0":31},"indices":28,"material":11,"mode":4}]},{"extensions":{"S8S_v3d_mesh":{"colorLayers":{},"uvLayers":{"UVMap":"TEXCOORD_0"}}},"name":"Object_11","primitives":[{"attributes":{"NORMAL":34,"POSITION":33,"TEXCOORD_0":35},"indices":32,"material":2,"mode":4}]},{"extensions":{"S8S_v3d_mesh":{"colorLayers":{},"uvLayers":{"UVMap":"TEXCOORD_0"}}},"name":"Object_12","primitives":[{"attributes":{"NORMAL":38,"POSITION":37,"TEXCOORD_0":39},"indices":36,"material":6,"mode":4}]},{"extensions":{"S8S_v3d_mesh":{"colorLayers":{},"uvLayers":{"UVMap":"TEXCOORD_0"}}},"name":"Object_13","primitives":[{"attributes":{"NORMAL":42,"POSITION":41,"TANGENT":43,"TEXCOORD_0":44},"indices":40,"material":7,"mode":4}]},{"extensions":{"S8S_v3d_mesh":{"colorLayers":{},"uvLayers":{"UVMap":"TEXCOORD_0"}}},"name":"Object_2","primitives":[{"attributes":{"NORMAL":47,"POSITION":46,"TEXCOORD_0":48},"indices":45,"material":12,"mode":4}]},{"extensions":{"S8S_v3d_mesh":{"colorLayers":{},"uvLayers":{"UVMap":"TEXCOORD_0"}}},"name":"Object_3","primitives":[{"attributes":{"NORMAL":51,"POSITION":50,"TEXCOORD_0":52},"indices":49,"material":9,"mode":4}]},{"extensions":{"S8S_v3d_mesh":{"colorLayers":{},"uvLayers":{"UVMap":"TEXCOORD_0"}}},"name":"Object_4","primitives":[{"attributes":{"NORMAL":55,"POSITION":54,"TEXCOORD_0":56},"indices":53,"material":0,"mode":4}]},{"extensions":{"S8S_v3d_mesh":{"colorLayers":{},"uvLayers":{"UVMap":"TEXCOORD_0"}}},"name":"Object_5","primitives":[{"attributes":{"NORMAL":59,"POSITION":58,"TEXCOORD_0":60},"indices":57,"material":3,"mode":4}]},{"extensions":{"S8S_v3d_mesh":{"colorLayers":{},"uvLayers":{"UVMap":"TEXCOORD_0"}}},"name":"Object_6","primitives":[{"attributes":{"NORMAL":63,"POSITION":62,"TEXCOORD_0":64},"indices":61,"material":8,"mode":4}]},{"extensions":{"S8S_v3d_mesh":{"colorLayers":{},"uvLayers":{"UVMap":"TEXCOORD_0"}}},"name":"Object_7","primitives":[{"attributes":{"NORMAL":67,"POSITION":66,"TEXCOORD_0":68},"indices":65,"material":5,"mode":4}]},{"extensions":{"S8S_v3d_mesh":{"colorLayers":{},"uvLayers":{"UVMap":"TEXCOORD_0"}}},"name":"Object_8","primitives":[{"attributes":{"NORMAL":71,"POSITION":70,"TEXCOORD_0":72},"indices":69,"material":4,"mode":4}]},{"extensions":{"S8S_v3d_mesh":{"colorLayers":{},"uvLayers":{"UVMap":"TEXCOORD_0"}}},"name":"Object_9","primitives":[{"attributes":{"NORMAL":75,"POSITION":74,"TEXCOORD_0":76},"indices":73,"material":10,"mode":4}]}],"nodes":[{"children":[17],"extensions":{"S8S_v3d_node":{"frustumCulling":true,"groupNames":[],"renderOrder":0}},"name":"Sketchfab_model","rotation":[-0.70710688829422,-0.0,0.0,0.7071066498756409],"scale":[0.2645912170410156,0.2645912766456604,0.2645912766456604],"translation":[-0.013160902075469494,0.3399370312690735,-0.3315802812576294]},{"children":[12,9,2,23,14,10,13,3,8,19,20,11,21,22],"extensions":{"S8S_v3d_node":{"frustumCulling":true,"groupNames":[],"renderOrder":0}},"name":"Quest_0","rotation":[0.70710688829422,0.0,-0.0,0.7071066498756409],"scale":[1.0,0.9999999403953552,0.9999999403953552],"translation":[0.0,0.3048303723335266,-1.413310170173645]},{"extensions":{"S8S_v3d_node":{"frustumCulling":true,"groupNames":[],"renderOrder":0,"useCastShadows":true,"useShadows":true}},"mesh":17,"name":"Object_12"},{"extensions":{"S8S_v3d_node":{"frustumCulling":true,"groupNames":[],"renderOrder":0,"useCastShadows":true,"useShadows":true}},"mesh":10,"name":"Object_17"},{"extensions":{"S8S_v3d_node":{"frustumCulling":true,"groupNames":[],"renderOrder":0,"useCastShadows":true,"useShadows":true}},"mesh":1,"name":"Cube.001","scale":[-0.07763367146253586,-0.06028588116168976,-0.05463762581348419],"translation":[-1.3679227828979492,0.30977532267570496,-0.6490796208381653]},{"extensions":{"S8S_v3d_node":{"frustumCulling":true,"groupNames":[],"renderOrder":0,"useCastShadows":true,"useShadows":true}},"mesh":2,"name":"Cube.002","scale":[-0.07763367146253586,-0.06028588116168976,-0.05463762581348419],"translation":[-1.252079963684082,0.20153586566448212,-0.481303870677948]},{"extensions":{"S8S_v3d_node":{"frustumCulling":true,"groupNames":[],"renderOrder":0,"useCastShadows":true,"useShadows":true}},"mesh":4,"name":"Cube.004","scale":[-0.07763367146253586,-0.06028588116168976,-0.05463762581348419],"translation":[-1.170807957649231,0.31546539068222046,-0.4322427809238434]},{"extensions":{"S8S_v3d_lights":{"light":0},"S8S_v3d_node":{"frustumCulling":true,"groupNames":[],"renderOrder":0}},"name":"Sun","rotation":[-0.24013148248195648,0.0,0.0,0.9707403779029846],"scale":[1.0,0.9999998807907104,0.9999998807907104],"translation":[-0.10730105638504028,1.6471617221832275,2.217155933380127]},{"extensions":{"S8S_v3d_node":{"frustumCulling":true,"groupNames":[],"renderOrder":0,"useCastShadows":true,"useShadows":true}},"mesh":5,"name":"Object_4"},{"extensions":{"S8S_v3d_node":{"frustumCulling":true,"groupNames":[],"renderOrder":0,"useCastShadows":true,"useShadows":true}},"mesh":16,"name":"Object_11"},{"extensions":{"S8S_v3d_node":{"frustumCulling":true,"groupNames":[],"renderOrder":0,"useCastShadows":true,"useShadows":true}},"mesh":8,"name":"Object_15"},{"extensions":{"S8S_v3d_node":{"frustumCulling":true,"groupNames":[],"renderOrder":0,"useCastShadows":true,"useShadows":true}},"mesh":12,"name":"Object_7"},{"extensions":{"S8S_v3d_node":{"frustumCulling":true,"groupNames":[],"renderOrder":0,"useCastShadows":true,"useShadows":true}},"mesh":15,"name":"Object_10"},{"extensions":{"S8S_v3d_node":{"frustumCulling":true,"groupNames":[],"renderOrder":0,"useCastShadows":true,"useShadows":true}},"mesh":9,"name":"Object_16"},{"extensions":{"S8S_v3d_node":{"frustumCulling":true,"groupNames":[],"renderOrder":0,"useCastShadows":true,"useShadows":true}},"mesh":7,"name":"Object_14"},{"extensions":{"S8S_v3d_node":{"frustumCulling":true,"groupNames":[],"renderOrder":0,"useCastShadows":true,"useShadows":true}},"mesh":0,"name":"Cube","scale":[-0.07763367146253586,-0.06028588116168976,-0.05463762581348419],"translation":[-1.0159965753555298,0.23855599761009216,-0.23252013325691223]},{"extensions":{"S8S_v3d_node":{"frustumCulling":true,"groupNames":[],"renderOrder":0,"useCastShadows":true,"useShadows":true}},"mesh":3,"name":"Cube.003","scale":[-0.07763367146253586,-0.06028588116168976,-0.05463762581348419],"translation":[-1.2057286500930786,0.4920614957809448,-0.5348694324493408]},{"children":[18],"extensions":{"S8S_v3d_node":{"frustumCulling":true,"groupNames":[],"renderOrder":0}},"name":"root"},{"children":[1],"extensions":{"S8S_v3d_node":{"frustumCulling":true,"groupNames":[],"renderOrder":0}},"name":"GLTF_SceneRootNode","rotation":[0.70710688829422,0.0,-0.0,0.7071066498756409],"scale":[1.0,1.0000001192092896,1.0000001192092896]},{"extensions":{"S8S_v3d_node":{"frustumCulling":true,"groupNames":[],"renderOrder":0,"useCastShadows":true,"useShadows":true}},"mesh":6,"name":"Object_5"},{"extensions":{"S8S_v3d_node":{"frustumCulling":true,"groupNames":[],"renderOrder":0,"useCastShadows":true,"useShadows":true}},"mesh":11,"name":"Object_6"},{"extensions":{"S8S_v3d_node":{"frustumCulling":true,"groupNames":[],"renderOrder":0,"useCastShadows":true,"useShadows":true}},"mesh":13,"name":"Object_8"},{"extensions":{"S8S_v3d_node":{"frustumCulling":true,"groupNames":[],"renderOrder":0,"useCastShadows":true,"useShadows":true}},"mesh":14,"name":"Object_9"},{"extensions":{"S8S_v3d_node":{"frustumCulling":true,"groupNames":[],"renderOrder":0,"useCastShadows":true,"useShadows":true}},"mesh":18,"name":"Object_13"},{"camera":0,"name":"__DEFAULT_CAMERA__","rotation":[-0.09805534034967422,-0.24068179726600647,-0.024446969851851463,0.9653288722038269],"scale":[1.0,0.9999997615814209,0.9999998211860657],"translation":[-2.430546522140503,1.4987787008285522,3.5958266258239746]}],"samplers":[{}],"scene":0,"scenes":[{"extensions":{"S8S_v3d_scene":{"aaMethod":"AUTO","iblEnvironmentMode":"PMREM","physicallyCorrectLights":true,"pmremMaxTileSize":512,"shadowMap":{"esmDistanceScale":1.0,"renderReverseSided":false,"renderSingleSided":true,"type":"PCFPOISSON"},"worldMaterial":19}},"extras":{"animFrameRate":24,"coordSystem":"Z_UP_RIGHT"},"name":"Scene","nodes":[0,15,4,5,16,6,7,24]}],"textures":[{"extensions":{"S8S_v3d_texture":{"colorSpace":"srgb"}},"name":"Image_2","sampler":0,"source":0},{"extensions":{"S8S_v3d_texture":{"colorSpace":"srgb"}},"name":"Image_0","sampler":0,"source":1},{"extensions":{"S8S_v3d_texture":{"colorSpace":"non-color"}},"name":"Image_1","sampler":0,"source":2},{"extensions":{"S8S_v3d_texture":{"colorSpace":"non-color"}},"name":"Image_3","sampler":0,"source":3},{"extensions":{"S8S_v3d_texture":{"colorSpace":"srgb"}},"name":"Image_4","sampler":0,"source":4},{"extensions":{"S8S_v3d_texture":{"colorSpace":"non-color"}},"name":"Image_6","sampler":0,"source":5},{"extensions":{"S8S_v3d_texture":{"colorSpace":"srgb"}},"name":"Image_5","sampler":0,"source":6},{"extensions":{"S8S_v3d_texture":{"colorSpace":"srgb"}},"name":"Image_5","sampler":0,"source":6}]}
