{"accessors":[{"bufferView":0,"componentType":5121,"count":36,"max":[23],"min":[0],"type":"SCALAR"},{"bufferView":1,"componentType":5126,"count":24,"max":[1.0,1.0,1.0],"min":[-1.0,-1.0,-1.0],"type":"VEC3"},{"bufferView":2,"componentType":5126,"count":24,"max":[1.0,1.0,1.0],"min":[-1.0,-1.0,-1.0],"type":"VEC3"},{"bufferView":3,"componentType":5126,"count":24,"max":[0.875,1.0],"min":[0.125,0.0],"type":"VEC2"},{"bufferView":4,"componentType":5121,"count":36,"max":[23],"min":[0],"type":"SCALAR"},{"bufferView":5,"componentType":5126,"count":24,"max":[1.0,1.0,1.0],"min":[-1.0,-1.0,-1.0],"type":"VEC3"},{"bufferView":6,"componentType":5126,"count":24,"max":[1.0,1.0,1.0],"min":[-1.0,-1.0,-1.0],"type":"VEC3"},{"bufferView":7,"componentType":5126,"count":24,"max":[0.875,1.0],"min":[0.125,0.0],"type":"VEC2"},{"bufferView":8,"componentType":5121,"count":36,"max":[23],"min":[0],"type":"SCALAR"},{"bufferView":9,"componentType":5126,"count":24,"max":[1.0,1.0,1.0],"min":[-1.0,-1.0,-1.0],"type":"VEC3"},{"bufferView":10,"componentType":5126,"count":24,"max":[1.0,1.0,1.0],"min":[-1.0,-1.0,-1.0],"type":"VEC3"},{"bufferView":11,"componentType":5126,"count":24,"max":[0.875,1.0],"min":[0.125,0.0],"type":"VEC2"},{"bufferView":12,"componentType":5121,"count":36,"max":[23],"min":[0],"type":"SCALAR"},{"bufferView":13,"componentType":5126,"count":24,"max":[1.0,1.0,1.0],"min":[-1.0,-1.0,-1.0],"type":"VEC3"},{"bufferView":14,"componentType":5126,"count":24,"max":[1.0,1.0,1.0],"min":[-1.0,-1.0,-1.0],"type":"VEC3"},{"bufferView":15,"componentType":5126,"count":24,"max":[0.875,1.0],"min":[0.125,0.0],"type":"VEC2"},{"bufferView":16,"componentType":5121,"count":36,"max":[23],"min":[0],"type":"SCALAR"},{"bufferView":17,"componentType":5126,"count":24,"max":[1.0,1.0,1.0],"min":[-1.0,-1.0,-1.0],"type":"VEC3"},{"bufferView":18,"componentType":5126,"count":24,"max":[1.0,1.0,1.0],"min":[-1.0,-1.0,-1.0],"type":"VEC3"},{"bufferView":19,"componentType":5126,"count":24,"max":[0.875,1.0],"min":[0.125,0.0],"type":"VEC2"},{"bufferView":20,"componentType":5121,"count":36,"max":[23],"min":[0],"type":"SCALAR"},{"bufferView":21,"componentType":5126,"count":24,"max":[1.0,1.0,1.0],"min":[-1.0,-1.0,-1.0],"type":"VEC3"},{"bufferView":22,"componentType":5126,"count":24,"max":[1.0,1.0,1.0],"min":[-1.0,-1.0,-1.0],"type":"VEC3"},{"bufferView":23,"componentType":5126,"count":24,"max":[0.875,1.0],"min":[0.125,0.0],"type":"VEC2"},{"bufferView":24,"componentType":5121,"count":36,"max":[23],"min":[0],"type":"SCALAR"},{"bufferView":25,"componentType":5126,"count":24,"max":[1.0,1.0,1.0],"min":[-1.0,-1.0,-1.0],"type":"VEC3"},{"bufferView":26,"componentType":5126,"count":24,"max":[1.0,1.0,1.0],"min":[-1.0,-1.0,-1.0],"type":"VEC3"},{"bufferView":27,"componentType":5126,"count":24,"max":[0.875,1.0],"min":[0.125,0.0],"type":"VEC2"},{"bufferView":28,"componentType":5121,"count":36,"max":[23],"min":[0],"type":"SCALAR"},{"bufferView":29,"componentType":5126,"count":24,"max":[1.0,1.0,1.0],"min":[-1.0,-1.0,-1.0],"type":"VEC3"},{"bufferView":30,"componentType":5126,"count":24,"max":[1.0,1.0,1.0],"min":[-1.0,-1.0,-1.0],"type":"VEC3"},{"bufferView":31,"componentType":5126,"count":24,"max":[0.875,1.0],"min":[0.125,0.0],"type":"VEC2"},{"bufferView":32,"componentType":5121,"count":36,"max":[23],"min":[0],"type":"SCALAR"},{"bufferView":33,"componentType":5126,"count":24,"max":[1.0,1.0,1.0],"min":[-1.0,-1.0,-1.0],"type":"VEC3"},{"bufferView":34,"componentType":5126,"count":24,"max":[1.0,1.0,1.0],"min":[-1.0,-1.0,-1.0],"type":"VEC3"},{"bufferView":35,"componentType":5126,"count":24,"max":[0.875,1.0],"min":[0.125,0.0],"type":"VEC2"},{"bufferView":36,"componentType":5121,"count":36,"max":[23],"min":[0],"type":"SCALAR"},{"bufferView":37,"componentType":5126,"count":24,"max":[1.0,1.0,1.0],"min":[-1.0,-1.0,-1.0],"type":"VEC3"},{"bufferView":38,"componentType":5126,"count":24,"max":[1.0,1.0,1.0],"min":[-1.0,-1.0,-1.0],"type":"VEC3"},{"bufferView":39,"componentType":5126,"count":24,"max":[0.875,1.0],"min":[0.125,0.0],"type":"VEC2"},{"bufferView":40,"componentType":5121,"count":36,"max":[23],"min":[0],"type":"SCALAR"},{"bufferView":41,"componentType":5126,"count":24,"max":[1.0,1.0,1.0],"min":[-1.0,-1.0,-1.0],"type":"VEC3"},{"bufferView":42,"componentType":5126,"count":24,"max":[1.0,1.0,1.0],"min":[-1.0,-1.0,-1.0],"type":"VEC3"},{"bufferView":43,"componentType":5126,"count":24,"max":[0.875,1.0],"min":[0.125,0.0],"type":"VEC2"},{"bufferView":44,"componentType":5121,"count":36,"max":[23],"min":[0],"type":"SCALAR"},{"bufferView":45,"componentType":5126,"count":24,"max":[1.0,1.0,1.0],"min":[-1.0,-1.0,-1.0],"type":"VEC3"},{"bufferView":46,"componentType":5126,"count":24,"max":[1.0,1.0,1.0],"min":[-1.0,-1.0,-1.0],"type":"VEC3"},{"bufferView":47,"componentType":5126,"count":24,"max":[0.875,1.0],"min":[0.125,0.0],"type":"VEC2"},{"bufferView":48,"componentType":5121,"count":36,"max":[23],"min":[0],"type":"SCALAR"},{"bufferView":49,"componentType":5126,"count":24,"max":[1.0,1.0,1.0],"min":[-1.0,-1.0,-1.0],"type":"VEC3"},{"bufferView":50,"componentType":5126,"count":24,"max":[1.0,1.0,1.0],"min":[-1.0,-1.0,-1.0],"type":"VEC3"},{"bufferView":51,"componentType":5126,"count":24,"max":[0.875,1.0],"min":[0.125,0.0],"type":"VEC2"},{"bufferView":52,"componentType":5121,"count":36,"max":[23],"min":[0],"type":"SCALAR"},{"bufferView":53,"componentType":5126,"count":24,"max":[1.0,1.0,1.0],"min":[-1.0,-1.0,-1.0],"type":"VEC3"},{"bufferView":54,"componentType":5126,"count":24,"max":[1.0,1.0,1.0],"min":[-1.0,-1.0,-1.0],"type":"VEC3"},{"bufferView":55,"componentType":5126,"count":24,"max":[0.875,1.0],"min":[0.125,0.0],"type":"VEC2"},{"bufferView":56,"componentType":5121,"count":36,"max":[23],"min":[0],"type":"SCALAR"},{"bufferView":57,"componentType":5126,"count":24,"max":[1.0,1.0,1.0],"min":[-1.0,-1.0,-1.0],"type":"VEC3"},{"bufferView":58,"componentType":5126,"count":24,"max":[1.0,1.0,1.0],"min":[-1.0,-1.0,-1.0],"type":"VEC3"},{"bufferView":59,"componentType":5126,"count":24,"max":[0.875,1.0],"min":[0.125,0.0],"type":"VEC2"},{"bufferView":60,"componentType":5121,"count":36,"max":[23],"min":[0],"type":"SCALAR"},{"bufferView":61,"componentType":5126,"count":24,"max":[1.0,1.0,1.0],"min":[-1.0,-1.0,-1.0],"type":"VEC3"},{"bufferView":62,"componentType":5126,"count":24,"max":[1.0,1.0,1.0],"min":[-1.0,-1.0,-1.0],"type":"VEC3"},{"bufferView":63,"componentType":5126,"count":24,"max":[0.875,1.0],"min":[0.125,0.0],"type":"VEC2"},{"bufferView":64,"componentType":5123,"count":4374,"max":[1053],"min":[0],"type":"SCALAR"},{"bufferView":65,"componentType":5126,"count":1054,"max":[2.733971118927002,2.6836624145507812,1.4288047552108765],"min":[-2.733971118927002,1.8443632125854492,-1.4402660131454468],"type":"VEC3"},{"bufferView":66,"componentType":5126,"count":1054,"max":[0.9965157508850098,1.0,0.9996035099029541],"min":[-0.9965157508850098,-1.0,-0.9999973773956299],"type":"VEC3"},{"bufferView":67,"componentType":5126,"count":1054,"max":[0.947131335735321,0.9291896820068359],"min":[-0.04390445351600647,0.02954810857772827],"type":"VEC2"},{"bufferView":68,"componentType":5123,"count":5484,"max":[1079],"min":[0],"type":"SCALAR"},{"bufferView":69,"componentType":5126,"count":1080,"max":[2.7300500869750977,2.2158355712890625,1.4348859786987305],"min":[-2.7300500869750977,-0.9792844653129578,-1.5796602964401245],"type":"VEC3"},{"bufferView":70,"componentType":5126,"count":1080,"max":[0.9998219013214111,0.9999630451202393,1.0],"min":[-0.9998219013214111,-0.9992864727973938,-0.9999980926513672],"type":"VEC3"},{"bufferView":71,"componentType":5126,"count":1080,"max":[0.8941872119903564,4.506716251373291],"min":[-0.7175582647323608,-3.5067129135131836],"type":"VEC2"},{"bufferView":72,"componentType":5123,"count":2112,"max":[385],"min":[0],"type":"SCALAR"},{"bufferView":73,"componentType":5126,"count":386,"max":[1.4493051767349243,1.6288995742797852,0.5646986961364746],"min":[-1.4493051767349243,1.2201247215270996,-0.4547771215438843],"type":"VEC3"},{"bufferView":74,"componentType":5126,"count":386,"max":[0.9227494597434998,-0.28262001276016235,0.908198356628418],"min":[-0.9326871633529663,-0.9990115165710449,-0.9411096572875977],"type":"VEC3"},{"bufferView":75,"componentType":5126,"count":386,"max":[0.9993634223937988,0.9432106018066406],"min":[0.0006365776062011719,0.06246894598007202],"type":"VEC2"},{"bufferView":76,"componentType":5123,"count":2304,"max":[691],"min":[0],"type":"SCALAR"},{"bufferView":77,"componentType":5126,"count":692,"max":[1.5465110540390015,1.2210793495178223,0.6581629514694214],"min":[-1.5465110540390015,1.1621365547180176,-0.545777440071106],"type":"VEC3"},{"bufferView":78,"componentType":5126,"count":692,"max":[0.999971330165863,2.0999992557335645e-05,0.9999291896820068],"min":[-0.999971330165863,-1.0,-0.9999291300773621],"type":"VEC3"},{"bufferView":79,"componentType":5126,"count":692,"max":[2.3343005180358887,2.274146556854248],"min":[-1.3343005180358887,0.02440178394317627],"type":"VEC2"},{"bufferView":80,"componentType":5121,"count":330,"max":[141],"min":[0],"type":"SCALAR"},{"bufferView":81,"componentType":5126,"count":142,"max":[1.3143543004989624,1.8921470642089844,1.464430332183838],"min":[-1.3824430704116821,1.6690921783447266,1.3622304201126099],"type":"VEC3"},{"bufferView":82,"componentType":5126,"count":142,"max":[0.9999537467956543,0.999991774559021,0.9998700618743896],"min":[-0.9999659061431885,-0.999992311000824,-0.04346302151679993],"type":"VEC3"},{"bufferView":83,"componentType":5126,"count":142,"max":[0.9972571730613708,1.0144670009613037],"min":[-0.03882569074630737,0.07524436712265015],"type":"VEC2"},{"bufferView":84,"componentType":5123,"count":1152,"max":[259],"min":[0],"type":"SCALAR"},{"bufferView":85,"componentType":5126,"count":260,"max":[1.4678932428359985,1.2861052751541138,0.5829182267189026],"min":[-1.4678932428359985,1.1194496154785156,-0.4722273349761963],"type":"VEC3"},{"bufferView":86,"componentType":5126,"count":260,"max":[0.18632498383522034,-0.9809848666191101,0.18883906304836273],"min":[-0.18632498383522034,-0.9999988675117493,-0.1796419471502304],"type":"VEC3"},{"bufferView":87,"componentType":5126,"count":260,"max":[0.21401865780353546,0.1887093484401703,0.9815577864646912,1.0],"min":[-0.21401378512382507,-0.17923811078071594,0.9614617824554443,-1.0],"type":"VEC4"},{"bufferView":88,"componentType":5126,"count":260,"max":[0.917389452457428,0.997322678565979],"min":[0.07578423619270325,0.12513768672943115],"type":"VEC2"},{"bufferView":89,"componentType":5121,"count":54,"max":[17],"min":[0],"type":"SCALAR"},{"bufferView":90,"componentType":5126,"count":18,"max":[2.709841251373291,2.1228532791137695,0.12104463577270508],"min":[2.605494499206543,2.0734949111938477,-0.15039312839508057],"type":"VEC3"},{"bufferView":91,"componentType":5126,"count":18,"max":[0.0,1.0,0.9991676211357117],"min":[0.0,-1.0,-0.9968787431716919],"type":"VEC3"},{"bufferView":92,"componentType":5126,"count":18,"max":[0.5000000596046448,0.5000000596046448],"min":[0.4999999403953552,0.4999999403953552],"type":"VEC2"},{"bufferView":93,"componentType":5121,"count":480,"max":[131],"min":[0],"type":"SCALAR"},{"bufferView":94,"componentType":5126,"count":132,"max":[2.0645840167999268,2.2312557697296143,1.3410303592681885],"min":[-2.0645840167999268,-0.9872555732727051,-1.3730701208114624],"type":"VEC3"},{"bufferView":95,"componentType":5126,"count":132,"max":[0.9998103976249695,0.0,1.0],"min":[-0.9998103380203247,-0.5757839679718018,-1.0],"type":"VEC3"},{"bufferView":96,"componentType":5126,"count":132,"max":[25.130937576293945,25.227266311645508],"min":[-17.981182098388672,-25.279869079589844],"type":"VEC2"},{"bufferView":97,"componentType":5123,"count":4368,"max":[759],"min":[0],"type":"SCALAR"},{"bufferView":98,"componentType":5126,"count":760,"max":[2.451420783996582,1.3879070281982422,1.5794755220413208],"min":[-2.451420783996582,-1.5256762504577637,-1.682471513748169],"type":"VEC3"},{"bufferView":99,"componentType":5126,"count":760,"max":[0.9971294403076172,0.9999793171882629,0.996204137802124],"min":[-0.9973032474517822,-0.999971330165863,-0.9998917579650879],"type":"VEC3"},{"bufferView":100,"componentType":5126,"count":760,"max":[0.5463681817054749,0.9956187605857849],"min":[0.024075539782643318,0.0053108930587768555],"type":"VEC2"},{"bufferView":101,"componentType":5123,"count":6504,"max":[1395],"min":[0],"type":"SCALAR"},{"bufferView":102,"componentType":5126,"count":1396,"max":[2.913851737976074,1.5660204887390137,1.468244194984436],"min":[-2.913851737976074,-6.204615116119385,-3.403289794921875],"type":"VEC3"},{"bufferView":103,"componentType":5126,"count":1396,"max":[1.0,1.0,1.0],"min":[-1.0,-1.0,-1.0],"type":"VEC3"},{"bufferView":104,"componentType":5126,"count":1396,"max":[1.0,1.0],"min":[0.0,0.0],"type":"VEC2"},{"bufferView":105,"componentType":5123,"count":3180,"max":[1263],"min":[0],"type":"SCALAR"},{"bufferView":106,"componentType":5126,"count":1264,"max":[2.6085386276245117,2.1767702102661133,1.5154380798339844],"min":[-2.6085386276245117,-1.4101676940917969,-1.6616021394729614],"type":"VEC3"},{"bufferView":107,"componentType":5126,"count":1264,"max":[0.9999712109565735,0.9994847774505615,0.9974209070205688],"min":[-0.9999726414680481,-0.9997220039367676,-0.9975298643112183],"type":"VEC3"},{"bufferView":108,"componentType":5126,"count":1264,"max":[0.5830676555633545,0.49000000953674316],"min":[0.01000000536441803,0.009999990463256836],"type":"VEC2"},{"bufferView":109,"componentType":5121,"count":480,"max":[139],"min":[0],"type":"SCALAR"},{"bufferView":110,"componentType":5126,"count":140,"max":[2.3887100219726562,2.415085792541504,1.3136310577392578],"min":[-2.3887100219726562,2.0590438842773438,-1.027572512626648],"type":"VEC3"},{"bufferView":111,"componentType":5126,"count":140,"max":[0.3031698763370514,0.9718163013458252,0.9390656352043152],"min":[-0.9921887516975403,-0.9718163013458252,-0.9390656352043152],"type":"VEC3"},{"bufferView":112,"componentType":5126,"count":140,"max":[1.0000001192092896,1.0],"min":[0.0,0.6249999403953552],"type":"VEC2"},{"bufferView":113,"componentType":5121,"count":72,"max":[31],"min":[0],"type":"SCALAR"},{"bufferView":114,"componentType":5126,"count":32,"max":[2.3834621906280518,2.409449577331543,1.3136310577392578],"min":[-2.3834621906280518,2.0590438842773438,-1.027572512626648],"type":"VEC3"},{"bufferView":115,"componentType":5126,"count":32,"max":[0.04944398254156113,0.9547762274742126,0.8242838382720947],"min":[-0.9364781379699707,-0.9547832608222961,-0.8242812156677246],"type":"VEC3"},{"bufferView":116,"componentType":5126,"count":32,"max":[1.4975128173828125,1.495077133178711],"min":[-0.4975113272666931,-0.49582386016845703],"type":"VEC2"},{"bufferView":117,"componentType":5121,"count":612,"max":[161],"min":[0],"type":"SCALAR"},{"bufferView":118,"componentType":5126,"count":162,"max":[1.9118351936340332,1.5963661670684814,1.0713696479797363],"min":[-1.9118351936340332,1.221078872680664,-0.939562201499939],"type":"VEC3"},{"bufferView":119,"componentType":5126,"count":162,"max":[0.802604079246521,-0.5916000604629517,0.5405440330505371],"min":[-0.802604079246521,-0.9894522428512573,-0.4519920349121094],"type":"VEC3"},{"bufferView":120,"componentType":5126,"count":162,"max":[2.3343005180358887,1.1779375076293945],"min":[-1.3343005180358887,0.031001627445220947],"type":"VEC2"}],"asset":{"generator":"Verge3D for Blender v4.12.0","version":"2.0"},"bufferViews":[{"buffer":0,"byteLength":36,"byteOffset":0,"target":34963},{"buffer":0,"byteLength":288,"byteOffset":36,"target":34962},{"buffer":0,"byteLength":288,"byteOffset":324,"target":34962},{"buffer":0,"byteLength":192,"byteOffset":612,"target":34962},{"buffer":0,"byteLength":36,"byteOffset":804,"target":34963},{"buffer":0,"byteLength":288,"byteOffset":840,"target":34962},{"buffer":0,"byteLength":288,"byteOffset":1128,"target":34962},{"buffer":0,"byteLength":192,"byteOffset":1416,"target":34962},{"buffer":0,"byteLength":36,"byteOffset":1608,"target":34963},{"buffer":0,"byteLength":288,"byteOffset":1644,"target":34962},{"buffer":0,"byteLength":288,"byteOffset":1932,"target":34962},{"buffer":0,"byteLength":192,"byteOffset":2220,"target":34962},{"buffer":0,"byteLength":36,"byteOffset":2412,"target":34963},{"buffer":0,"byteLength":288,"byteOffset":2448,"target":34962},{"buffer":0,"byteLength":288,"byteOffset":2736,"target":34962},{"buffer":0,"byteLength":192,"byteOffset":3024,"target":34962},{"buffer":0,"byteLength":36,"byteOffset":3216,"target":34963},{"buffer":0,"byteLength":288,"byteOffset":3252,"target":34962},{"buffer":0,"byteLength":288,"byteOffset":3540,"target":34962},{"buffer":0,"byteLength":192,"byteOffset":3828,"target":34962},{"buffer":0,"byteLength":36,"byteOffset":4020,"target":34963},{"buffer":0,"byteLength":288,"byteOffset":4056,"target":34962},{"buffer":0,"byteLength":288,"byteOffset":4344,"target":34962},{"buffer":0,"byteLength":192,"byteOffset":4632,"target":34962},{"buffer":0,"byteLength":36,"byteOffset":4824,"target":34963},{"buffer":0,"byteLength":288,"byteOffset":4860,"target":34962},{"buffer":0,"byteLength":288,"byteOffset":5148,"target":34962},{"buffer":0,"byteLength":192,"byteOffset":5436,"target":34962},{"buffer":0,"byteLength":36,"byteOffset":5628,"target":34963},{"buffer":0,"byteLength":288,"byteOffset":5664,"target":34962},{"buffer":0,"byteLength":288,"byteOffset":5952,"target":34962},{"buffer":0,"byteLength":192,"byteOffset":6240,"target":34962},{"buffer":0,"byteLength":36,"byteOffset":6432,"target":34963},{"buffer":0,"byteLength":288,"byteOffset":6468,"target":34962},{"buffer":0,"byteLength":288,"byteOffset":6756,"target":34962},{"buffer":0,"byteLength":192,"byteOffset":7044,"target":34962},{"buffer":0,"byteLength":36,"byteOffset":7236,"target":34963},{"buffer":0,"byteLength":288,"byteOffset":7272,"target":34962},{"buffer":0,"byteLength":288,"byteOffset":7560,"target":34962},{"buffer":0,"byteLength":192,"byteOffset":7848,"target":34962},{"buffer":0,"byteLength":36,"byteOffset":8040,"target":34963},{"buffer":0,"byteLength":288,"byteOffset":8076,"target":34962},{"buffer":0,"byteLength":288,"byteOffset":8364,"target":34962},{"buffer":0,"byteLength":192,"byteOffset":8652,"target":34962},{"buffer":0,"byteLength":36,"byteOffset":8844,"target":34963},{"buffer":0,"byteLength":288,"byteOffset":8880,"target":34962},{"buffer":0,"byteLength":288,"byteOffset":9168,"target":34962},{"buffer":0,"byteLength":192,"byteOffset":9456,"target":34962},{"buffer":0,"byteLength":36,"byteOffset":9648,"target":34963},{"buffer":0,"byteLength":288,"byteOffset":9684,"target":34962},{"buffer":0,"byteLength":288,"byteOffset":9972,"target":34962},{"buffer":0,"byteLength":192,"byteOffset":10260,"target":34962},{"buffer":0,"byteLength":36,"byteOffset":10452,"target":34963},{"buffer":0,"byteLength":288,"byteOffset":10488,"target":34962},{"buffer":0,"byteLength":288,"byteOffset":10776,"target":34962},{"buffer":0,"byteLength":192,"byteOffset":11064,"target":34962},{"buffer":0,"byteLength":36,"byteOffset":11256,"target":34963},{"buffer":0,"byteLength":288,"byteOffset":11292,"target":34962},{"buffer":0,"byteLength":288,"byteOffset":11580,"target":34962},{"buffer":0,"byteLength":192,"byteOffset":11868,"target":34962},{"buffer":0,"byteLength":36,"byteOffset":12060,"target":34963},{"buffer":0,"byteLength":288,"byteOffset":12096,"target":34962},{"buffer":0,"byteLength":288,"byteOffset":12384,"target":34962},{"buffer":0,"byteLength":192,"byteOffset":12672,"target":34962},{"buffer":0,"byteLength":8748,"byteOffset":12864,"target":34963},{"buffer":0,"byteLength":12648,"byteOffset":21612,"target":34962},{"buffer":0,"byteLength":12648,"byteOffset":34260,"target":34962},{"buffer":0,"byteLength":8432,"byteOffset":46908,"target":34962},{"buffer":0,"byteLength":10968,"byteOffset":55340,"target":34963},{"buffer":0,"byteLength":12960,"byteOffset":66308,"target":34962},{"buffer":0,"byteLength":12960,"byteOffset":79268,"target":34962},{"buffer":0,"byteLength":8640,"byteOffset":92228,"target":34962},{"buffer":0,"byteLength":4224,"byteOffset":100868,"target":34963},{"buffer":0,"byteLength":4632,"byteOffset":105092,"target":34962},{"buffer":0,"byteLength":4632,"byteOffset":109724,"target":34962},{"buffer":0,"byteLength":3088,"byteOffset":114356,"target":34962},{"buffer":0,"byteLength":4608,"byteOffset":117444,"target":34963},{"buffer":0,"byteLength":8304,"byteOffset":122052,"target":34962},{"buffer":0,"byteLength":8304,"byteOffset":130356,"target":34962},{"buffer":0,"byteLength":5536,"byteOffset":138660,"target":34962},{"buffer":0,"byteLength":330,"byteOffset":144196,"target":34963},{"buffer":0,"byteLength":1704,"byteOffset":144528,"target":34962},{"buffer":0,"byteLength":1704,"byteOffset":146232,"target":34962},{"buffer":0,"byteLength":1136,"byteOffset":147936,"target":34962},{"buffer":0,"byteLength":2304,"byteOffset":149072,"target":34963},{"buffer":0,"byteLength":3120,"byteOffset":151376,"target":34962},{"buffer":0,"byteLength":3120,"byteOffset":154496,"target":34962},{"buffer":0,"byteLength":4160,"byteOffset":157616,"target":34962},{"buffer":0,"byteLength":2080,"byteOffset":161776,"target":34962},{"buffer":0,"byteLength":54,"byteOffset":163856,"target":34963},{"buffer":0,"byteLength":216,"byteOffset":163912,"target":34962},{"buffer":0,"byteLength":216,"byteOffset":164128,"target":34962},{"buffer":0,"byteLength":144,"byteOffset":164344,"target":34962},{"buffer":0,"byteLength":480,"byteOffset":164488,"target":34963},{"buffer":0,"byteLength":1584,"byteOffset":164968,"target":34962},{"buffer":0,"byteLength":1584,"byteOffset":166552,"target":34962},{"buffer":0,"byteLength":1056,"byteOffset":168136,"target":34962},{"buffer":0,"byteLength":8736,"byteOffset":169192,"target":34963},{"buffer":0,"byteLength":9120,"byteOffset":177928,"target":34962},{"buffer":0,"byteLength":9120,"byteOffset":187048,"target":34962},{"buffer":0,"byteLength":6080,"byteOffset":196168,"target":34962},{"buffer":0,"byteLength":13008,"byteOffset":202248,"target":34963},{"buffer":0,"byteLength":16752,"byteOffset":215256,"target":34962},{"buffer":0,"byteLength":16752,"byteOffset":232008,"target":34962},{"buffer":0,"byteLength":11168,"byteOffset":248760,"target":34962},{"buffer":0,"byteLength":6360,"byteOffset":259928,"target":34963},{"buffer":0,"byteLength":15168,"byteOffset":266288,"target":34962},{"buffer":0,"byteLength":15168,"byteOffset":281456,"target":34962},{"buffer":0,"byteLength":10112,"byteOffset":296624,"target":34962},{"buffer":0,"byteLength":480,"byteOffset":306736,"target":34963},{"buffer":0,"byteLength":1680,"byteOffset":307216,"target":34962},{"buffer":0,"byteLength":1680,"byteOffset":308896,"target":34962},{"buffer":0,"byteLength":1120,"byteOffset":310576,"target":34962},{"buffer":0,"byteLength":72,"byteOffset":311696,"target":34963},{"buffer":0,"byteLength":384,"byteOffset":311768,"target":34962},{"buffer":0,"byteLength":384,"byteOffset":312152,"target":34962},{"buffer":0,"byteLength":256,"byteOffset":312536,"target":34962},{"buffer":0,"byteLength":612,"byteOffset":312792,"target":34963},{"buffer":0,"byteLength":1944,"byteOffset":313404,"target":34962},{"buffer":0,"byteLength":1944,"byteOffset":315348,"target":34962},{"buffer":0,"byteLength":1296,"byteOffset":317292,"target":34962}],"buffers":[{"byteLength":318588,"uri":"vrHeadset.bin"}],"cameras":[{"extensions":{"S8S_v3d_camera":{"controls":"ORBIT","enablePan":true,"moveSpeed":1,"orbitMaxDistance":10000,"orbitMaxPolarAngle":3.141592653589793,"orbitMinDistance":0,"orbitMinPolarAngle":0,"orbitTarget":[-0.5145810842514038,0.6610363125801086,-0.007607907988131046],"rotateSpeed":1,"viewportFitInitialAspect":1,"viewportFitType":"VERTICAL"}},"name":"__DEFAULT__","orthographic":{"xmag":2.9996861249809026,"ymag":1.743830746758852,"zfar":1000.0,"znear":-1000.0},"type":"orthographic"}],"extensions":{"S8S_v3d_lights":{"lights":[{"color":[1.0,1.0,1.0],"intensity":6.663117709234294,"name":"Sun","profile":"blender","shadow":{"bias":-0.0018,"cameraFar":100,"cameraFov":0,"cameraNear":0.1,"csm":{"count":4,"exponent":0.800000011920929,"fade":0.10000000149011612,"lightMargin":0.0,"maxDistance":1000.0},"enabled":true,"expBias":2.5,"mapSize":1024,"radius":1.0,"slopeScaledBias":2.5},"type":"directional"}]}},"extensionsUsed":["S8S_v3d_texture","S8S_v3d_materials","S8S_v3d_camera","S8S_v3d_lights","S8S_v3d_mesh","S8S_v3d_node","S8S_v3d_scene"],"images":[{"uri":"v3d_exported_image_image_2.png"},{"uri":"v3d_exported_image_image_0.png"},{"uri":"v3d_exported_image_image_1.png"},{"uri":"v3d_exported_image_image_3.png"},{"uri":"v3d_exported_image_image_4.jpeg"},{"uri":"v3d_exported_image_image_6.png"},{"uri":"v3d_exported_image_image_5.png"},{"uri":"v3d_exported_image_image_1.001.png"},{"uri":"v3d_exported_image_image_1.002.png"},{"uri":"v3d_exported_image_image_1.003.png"},{"uri":"v3d_exported_image_image_1.004.png"},{"uri":"v3d_exported_image_image_1.005.png"}],"materials":[{"alphaMode":"OPAQUE","extensions":{"S8S_v3d_materials":{"gtaoVisible":true,"materialIndex":0,"nodeGraph":{"edges":[{"fromNode":0,"fromOutput":0,"toInput":0,"toNode":1},{"fromNode":2,"fromOutput":0,"toInput":0,"toNode":0},{"fromNode":3,"fromOutput":0,"toInput":0,"toNode":2},{"fromNode":4,"fromOutput":0,"toInput":0,"toNode":3}],"nodes":[{"inputs":[[0.800000011920929,0.800000011920929,0.800000011920929,1.0],0.0,0.6318179965019226,1.5,1.0,[0.0,0.0,0.0],0.0,0.0,[1.0,0.20000000298023224,0.10000000149011612],0.05000000074505806,1.399999976158142,0.0,0.5,[1.0,1.0,1.0,1.0],0.0,0.0,[0.0,0.0,0.0],0.0,0.0,0.029999999329447746,1.5,[1.0,1.0,1.0,1.0],[0.0,0.0,0.0],0.0,0.5,[1.0,1.0,1.0,1.0],[1.0,1.0,1.0,1.0],0.0,0.0,1.3300000429153442],"is_active_output":false,"name":"Principled BSDF","outputs":[[0,0,0,0]],"type":"BSDF_PRINCIPLED_BL"},{"inputs":[[0,0,0,0],[0,0,0,0],[0.0,0.0,0.0],0.0],"is_active_output":true,"name":"Material Output","outputs":[],"type":"OUTPUT_MATERIAL_BL"},{"alphaMode":"CHANNEL_PACKED","inputs":[[0.0,0.0,0.0]],"is_active_output":false,"name":"Image Texture","outputs":[[0.800000011920929,0.800000011920929,0.800000011920929,1.0],0.0],"projection":"FLAT","projectionBlend":0.0,"texture":0,"type":"TEX_IMAGE_BL"},{"inputs":[[0.0,0.0,0.0],[0.0,-3.5,0.0],[0.0,0.0,0.0],[4.5,4.5,1.0]],"is_active_output":false,"name":"Mapping","outputs":[[0.0,0.0,0.0]],"type":"MAPPING_BL","vectorType":"POINT"},{"inputs":[],"is_active_output":false,"name":"UV Map","outputs":[[0.0,0.0,0.0]],"type":"UVMAP_BL","uvLayer":"UVMap"}]}}},"name":"Quest_Foam"},{"alphaMode":"OPAQUE","extensions":{"S8S_v3d_materials":{"gtaoVisible":true,"materialIndex":0,"nodeGraph":{"edges":[{"fromNode":0,"fromOutput":0,"toInput":0,"toNode":1},{"fromNode":2,"fromOutput":0,"toInput":0,"toNode":0},{"fromNode":3,"fromOutput":0,"toInput":1,"toNode":0},{"fromNode":4,"fromOutput":2,"toInput":0,"toNode":3},{"fromNode":4,"fromOutput":1,"toInput":2,"toNode":0},{"fromNode":5,"fromOutput":0,"toInput":0,"toNode":4}],"nodes":[{"inputs":[[0.800000011920929,0.800000011920929,0.800000011920929,1.0],0.0,0.5,1.5,1.0,[0.0,0.0,0.0],0.0,0.0,[1.0,0.20000000298023224,0.10000000149011612],0.05000000074505806,1.399999976158142,0.0,0.5,[1.0,1.0,1.0,1.0],0.0,0.0,[0.0,0.0,0.0],0.0,0.0,0.029999999329447746,1.5,[1.0,1.0,1.0,1.0],[0.0,0.0,0.0],0.0,0.5,[1.0,1.0,1.0,1.0],[1.0,1.0,1.0,1.0],0.0,0.0,1.3300000429153442],"is_active_output":false,"name":"Principled BSDF","outputs":[[0,0,0,0]],"type":"BSDF_PRINCIPLED_BL"},{"inputs":[[0,0,0,0],[0,0,0,0],[0.0,0.0,0.0],0.0],"is_active_output":true,"name":"Material Output","outputs":[],"type":"OUTPUT_MATERIAL_BL"},{"alphaMode":"CHANNEL_PACKED","inputs":[[0.0,0.0,0.0]],"is_active_output":false,"name":"Image Texture","outputs":[[0.800000011920929,0.800000011920929,0.800000011920929,1.0],0.0],"projection":"FLAT","projectionBlend":0.0,"texture":1,"type":"TEX_IMAGE_BL"},{"inputs":[0.5,0.0,0.5],"is_active_output":false,"name":"Math","operation":"MULTIPLY","outputs":[0.0],"type":"MATH_BL","useClamp":false},{"inputs":[[0.800000011920929,0.800000011920929,0.800000011920929,1.0]],"is_active_output":false,"mode":"RGB","name":"Separate Color","outputs":[0.0,0.0,0.0],"type":"SEPARATE_COLOR_BL"},{"alphaMode":"CHANNEL_PACKED","inputs":[[0.0,0.0,0.0]],"is_active_output":false,"name":"Image Texture.001","outputs":[[0.800000011920929,0.800000011920929,0.800000011920929,1.0],0.0],"projection":"FLAT","projectionBlend":0.0,"texture":2,"type":"TEX_IMAGE_BL"}]}}},"name":"Quest_Front"},{"alphaMode":"OPAQUE","extensions":{"S8S_v3d_materials":{"gtaoVisible":true,"materialIndex":0,"nodeGraph":{"edges":[{"fromNode":0,"fromOutput":0,"toInput":0,"toNode":1}],"nodes":[{"inputs":[[0.003095440100878477,0.003095440100878477,0.003095440100878477,1.0],0.0,0.5,1.5,1.0,[0.0,0.0,0.0],0.0,0.0,[1.0,0.20000000298023224,0.10000000149011612],0.05000000074505806,1.399999976158142,0.0,0.5,[1.0,1.0,1.0,1.0],0.0,0.0,[0.0,0.0,0.0],0.0,0.0,0.029999999329447746,1.5,[1.0,1.0,1.0,1.0],[0.0,0.0,0.0],0.0,0.5,[1.0,1.0,1.0,1.0],[1.0,1.0,1.0,1.0],0.0,0.0,1.3300000429153442],"is_active_output":false,"name":"Principled BSDF","outputs":[[0,0,0,0]],"type":"BSDF_PRINCIPLED_BL"},{"inputs":[[0,0,0,0],[0,0,0,0],[0.0,0.0,0.0],0.0],"is_active_output":true,"name":"Material Output","outputs":[],"type":"OUTPUT_MATERIAL_BL"}]}}},"name":"Quest_Gummi_Linse"},{"alphaMode":"OPAQUE","extensions":{"S8S_v3d_materials":{"gtaoVisible":true,"materialIndex":0,"nodeGraph":{"edges":[{"fromNode":0,"fromOutput":0,"toInput":0,"toNode":1},{"fromNode":2,"fromOutput":0,"toInput":1,"toNode":0},{"fromNode":3,"fromOutput":2,"toInput":0,"toNode":2},{"fromNode":3,"fromOutput":1,"toInput":2,"toNode":0},{"fromNode":4,"fromOutput":0,"toInput":0,"toNode":3}],"nodes":[{"inputs":[[0.0023973260540515184,0.0023973260540515184,0.0023973260540515184,1.0],0.0,0.5,1.5,1.0,[0.0,0.0,0.0],0.0,0.0,[1.0,0.20000000298023224,0.10000000149011612],0.05000000074505806,1.399999976158142,0.0,0.5,[1.0,1.0,1.0,1.0],0.0,0.0,[0.0,0.0,0.0],0.0,0.0,0.029999999329447746,1.5,[1.0,1.0,1.0,1.0],[0.0,0.0,0.0],0.0,0.5,[1.0,1.0,1.0,1.0],[1.0,1.0,1.0,1.0],0.0,0.0,1.3300000429153442],"is_active_output":false,"name":"Principled BSDF","outputs":[[0,0,0,0]],"type":"BSDF_PRINCIPLED_BL"},{"inputs":[[0,0,0,0],[0,0,0,0],[0.0,0.0,0.0],0.0],"is_active_output":true,"name":"Material Output","outputs":[],"type":"OUTPUT_MATERIAL_BL"},{"inputs":[0.5,0.0,0.5],"is_active_output":false,"name":"Math","operation":"MULTIPLY","outputs":[0.0],"type":"MATH_BL","useClamp":false},{"inputs":[[0.800000011920929,0.800000011920929,0.800000011920929,1.0]],"is_active_output":false,"mode":"RGB","name":"Separate Color","outputs":[0.0,0.0,0.0],"type":"SEPARATE_COLOR_BL"},{"alphaMode":"CHANNEL_PACKED","inputs":[[0.0,0.0,0.0]],"is_active_output":false,"name":"Image Texture","outputs":[[0.800000011920929,0.800000011920929,0.800000011920929,1.0],0.0],"projection":"FLAT","projectionBlend":0.0,"texture":3,"type":"TEX_IMAGE_BL"}]}}},"name":"Quest_Headstrap"},{"alphaMode":"OPAQUE","extensions":{"S8S_v3d_materials":{"gtaoVisible":true,"materialIndex":0,"nodeGraph":{"edges":[{"fromNode":0,"fromOutput":0,"toInput":0,"toNode":1},{"fromNode":2,"fromOutput":0,"toInput":0,"toNode":0},{"fromNode":3,"fromOutput":0,"toInput":0,"toNode":2},{"fromNode":4,"fromOutput":0,"toInput":0,"toNode":3}],"nodes":[{"inputs":[[0.800000011920929,0.800000011920929,0.800000011920929,1.0],0.0,0.5636360049247742,1.5,1.0,[0.0,0.0,0.0],0.0,0.0,[1.0,0.20000000298023224,0.10000000149011612],0.05000000074505806,1.399999976158142,0.0,0.5,[1.0,1.0,1.0,1.0],0.0,0.0,[0.0,0.0,0.0],0.0,0.0,0.029999999329447746,1.5,[1.0,1.0,1.0,1.0],[0.0,0.0,0.0],0.0,0.5,[1.0,1.0,1.0,1.0],[1.0,1.0,1.0,1.0],0.0,0.0,1.3300000429153442],"is_active_output":false,"name":"Principled BSDF","outputs":[[0,0,0,0]],"type":"BSDF_PRINCIPLED_BL"},{"inputs":[[0,0,0,0],[0,0,0,0],[0.0,0.0,0.0],0.0],"is_active_output":true,"name":"Material Output","outputs":[],"type":"OUTPUT_MATERIAL_BL"},{"alphaMode":"CHANNEL_PACKED","inputs":[[0.0,0.0,0.0]],"is_active_output":false,"name":"Image Texture","outputs":[[0.800000011920929,0.800000011920929,0.800000011920929,1.0],0.0],"projection":"FLAT","projectionBlend":0.0,"texture":4,"type":"TEX_IMAGE_BL"},{"inputs":[[0.0,0.0,0.0],[0.24289241433143616,0.24478478729724884,0.0],[0.0,0.0,0.0],[0.5,0.5,1.0]],"is_active_output":false,"name":"Mapping","outputs":[[0.0,0.0,0.0]],"type":"MAPPING_BL","vectorType":"POINT"},{"inputs":[],"is_active_output":false,"name":"UV Map","outputs":[[0.0,0.0,0.0]],"type":"UVMAP_BL","uvLayer":"UVMap"}]}}},"name":"Quest_Kamera"},{"alphaMode":"BLEND","extensions":{"S8S_v3d_materials":{"gtaoVisible":true,"materialIndex":0,"nodeGraph":{"edges":[{"fromNode":0,"fromOutput":0,"toInput":0,"toNode":1}],"nodes":[{"inputs":[[0.0,0.0,0.0,1.0],0.0,0.0,1.5,0.25,[0.0,0.0,0.0],0.0,0.0,[1.0,0.20000000298023224,0.10000000149011612],0.05000000074505806,1.399999976158142,0.0,0.5,[1.0,1.0,1.0,1.0],0.0,0.0,[0.0,0.0,0.0],0.9416937828063965,0.0,0.029999999329447746,1.5,[1.0,1.0,1.0,1.0],[0.0,0.0,0.0],0.0,0.5,[1.0,1.0,1.0,1.0],[1.0,1.0,1.0,1.0],0.0,0.0,1.3300000429153442],"is_active_output":false,"name":"Principled BSDF","outputs":[[0,0,0,0]],"type":"BSDF_PRINCIPLED_BL"},{"inputs":[[0,0,0,0],[0,0,0,0],[0.0,0.0,0.0],0.0],"is_active_output":true,"name":"Material Output","outputs":[],"type":"OUTPUT_MATERIAL_BL"}]}}},"name":"Quest_Kamera_Linsen"},{"alphaMode":"OPAQUE","extensions":{"S8S_v3d_materials":{"gtaoVisible":true,"materialIndex":0,"nodeGraph":{"edges":[{"fromNode":0,"fromOutput":0,"toInput":0,"toNode":1}],"nodes":[{"inputs":[[0.009018169716000557,0.009018169716000557,0.009018169716000557,1.0],0.0,0.43636399507522583,1.5,1.0,[0.0,0.0,0.0],0.0,0.0,[1.0,0.20000000298023224,0.10000000149011612],0.05000000074505806,1.399999976158142,0.0,0.5,[1.0,1.0,1.0,1.0],0.0,0.0,[0.0,0.0,0.0],0.0,0.0,0.029999999329447746,1.5,[1.0,1.0,1.0,1.0],[0.0,0.0,0.0],0.0,0.5,[1.0,1.0,1.0,1.0],[1.0,1.0,1.0,1.0],0.0,0.0,1.3300000429153442],"is_active_output":false,"name":"Principled BSDF","outputs":[[0,0,0,0]],"type":"BSDF_PRINCIPLED_BL"},{"inputs":[[0,0,0,0],[0,0,0,0],[0.0,0.0,0.0],0.0],"is_active_output":true,"name":"Material Output","outputs":[],"type":"OUTPUT_MATERIAL_BL"}]}}},"name":"Quest_Lautstrketaste"},{"alphaMode":"BLEND","extensions":{"S8S_v3d_materials":{"gtaoVisible":true,"materialIndex":0,"nodeGraph":{"edges":[{"fromNode":0,"fromOutput":0,"toInput":0,"toNode":1},{"fromNode":2,"fromOutput":0,"toInput":5,"toNode":0},{"fromNode":3,"fromOutput":0,"toInput":1,"toNode":2}],"nodes":[{"inputs":[[0.800000011920929,0.800000011920929,0.800000011920929,1.0],0.0,0.0,1.5,0.25,[0.0,0.0,0.0],0.0,0.0,[1.0,0.20000000298023224,0.10000000149011612],0.05000000074505806,1.399999976158142,0.0,0.5,[1.0,1.0,1.0,1.0],0.0,0.0,[0.0,0.0,0.0],1.0,0.0,0.029999999329447746,1.5,[1.0,1.0,1.0,1.0],[0.0,0.0,0.0],0.0,0.5,[1.0,1.0,1.0,1.0],[1.0,1.0,1.0,1.0],0.0,0.0,1.3300000429153442],"is_active_output":false,"name":"Principled BSDF","outputs":[[0,0,0,0]],"type":"BSDF_PRINCIPLED_BL"},{"inputs":[[0,0,0,0],[0,0,0,0],[0.0,0.0,0.0],0.0],"is_active_output":true,"name":"Material Output","outputs":[],"type":"OUTPUT_MATERIAL_BL"},{"inputs":[0.46655407547950745,[0.5,0.5,1.0,1.0]],"is_active_output":false,"name":"Normal Map","outputs":[[0.0,0.0,0.0]],"type":"NORMAL_MAP_BL","uvLayer":"UVMap"},{"alphaMode":"CHANNEL_PACKED","inputs":[[0.0,0.0,0.0]],"is_active_output":false,"name":"Image Texture","outputs":[[0.800000011920929,0.800000011920929,0.800000011920929,1.0],0.0],"projection":"FLAT","projectionBlend":0.0,"texture":5,"type":"TEX_IMAGE_BL"}]}}},"name":"Quest_Linsen"},{"alphaMode":"OPAQUE","extensions":{"S8S_v3d_materials":{"gtaoVisible":true,"materialIndex":0,"nodeGraph":{"edges":[{"fromNode":0,"fromOutput":0,"toInput":0,"toNode":1}],"nodes":[{"inputs":[[0.003095440100878477,0.003095440100878477,0.003095440100878477,1.0],0.0,0.8416669964790344,1.5,1.0,[0.0,0.0,0.0],0.0,0.0,[1.0,0.20000000298023224,0.10000000149011612],0.05000000074505806,1.399999976158142,0.0,0.5,[1.0,1.0,1.0,1.0],0.0,0.0,[0.0,0.0,0.0],0.0,0.0,0.029999999329447746,1.5,[1.0,1.0,1.0,1.0],[0.0,0.0,0.0],0.0,0.5,[1.0,1.0,1.0,1.0],[1.0,1.0,1.0,1.0],0.0,0.0,1.3300000429153442],"is_active_output":false,"name":"Principled BSDF","outputs":[[0,0,0,0]],"type":"BSDF_PRINCIPLED_BL"},{"inputs":[[0,0,0,0],[0,0,0,0],[0.0,0.0,0.0],0.0],"is_active_output":true,"name":"Material Output","outputs":[],"type":"OUTPUT_MATERIAL_BL"}]}}},"name":"Quest_Plastik"},{"alphaMode":"OPAQUE","extensions":{"S8S_v3d_materials":{"gtaoVisible":true,"materialIndex":0,"nodeGraph":{"edges":[{"fromNode":0,"fromOutput":0,"toInput":0,"toNode":1}],"nodes":[{"inputs":[[0.007202620152384043,0.007202620152384043,0.007202620152384043,1.0],0.0,0.945455014705658,1.5,1.0,[0.0,0.0,0.0],0.0,0.0,[1.0,0.20000000298023224,0.10000000149011612],0.05000000074505806,1.399999976158142,0.0,0.5,[1.0,1.0,1.0,1.0],0.0,0.0,[0.0,0.0,0.0],0.0,0.0,0.029999999329447746,1.5,[1.0,1.0,1.0,1.0],[0.0,0.0,0.0],0.0,0.5,[1.0,1.0,1.0,1.0],[1.0,1.0,1.0,1.0],0.0,0.0,1.3300000429153442],"is_active_output":false,"name":"Principled BSDF","outputs":[[0,0,0,0]],"type":"BSDF_PRINCIPLED_BL"},{"inputs":[[0,0,0,0],[0,0,0,0],[0.0,0.0,0.0],0.0],"is_active_output":true,"name":"Material Output","outputs":[],"type":"OUTPUT_MATERIAL_BL"}]}}},"name":"Quest_Samt"},{"alphaMode":"OPAQUE","extensions":{"S8S_v3d_materials":{"gtaoVisible":true,"materialIndex":0,"nodeGraph":{"edges":[{"fromNode":0,"fromOutput":0,"toInput":0,"toNode":1}],"nodes":[{"inputs":[[0.021046100184321404,0.021046100184321404,0.021046100184321404,1.0],0.0,0.945455014705658,1.5,1.0,[0.0,0.0,0.0],0.0,0.0,[1.0,0.20000000298023224,0.10000000149011612],0.05000000074505806,1.399999976158142,0.0,0.5,[1.0,1.0,1.0,1.0],0.0,0.0,[0.0,0.0,0.0],0.0,0.0,0.029999999329447746,1.5,[1.0,1.0,1.0,1.0],[0.0,0.0,0.0],0.0,0.5,[1.0,1.0,1.0,1.0],[1.0,1.0,1.0,1.0],0.0,0.0,1.3300000429153442],"is_active_output":false,"name":"Principled BSDF","outputs":[[0,0,0,0]],"type":"BSDF_PRINCIPLED_BL"},{"inputs":[[0,0,0,0],[0,0,0,0],[0.0,0.0,0.0],0.0],"is_active_output":true,"name":"Material Output","outputs":[],"type":"OUTPUT_MATERIAL_BL"}]}}},"name":"Quest_Samt_2"},{"alphaMode":"OPAQUE","extensions":{"S8S_v3d_materials":{"gtaoVisible":true,"materialIndex":0,"nodeGraph":{"edges":[{"fromNode":0,"fromOutput":0,"toInput":0,"toNode":1},{"fromNode":2,"fromOutput":0,"toInput":26,"toNode":0},{"fromNode":3,"fromOutput":0,"toInput":0,"toNode":0}],"nodes":[{"inputs":[[0.800000011920929,0.800000011920929,0.800000011920929,1.0],0.0,0.5,1.5,1.0,[0.0,0.0,0.0],0.0,0.0,[1.0,0.20000000298023224,0.10000000149011612],0.05000000074505806,1.399999976158142,0.0,0.5,[1.0,1.0,1.0,1.0],0.0,0.0,[0.0,0.0,0.0],0.0,0.0,0.029999999329447746,1.5,[1.0,1.0,1.0,1.0],[0.0,0.0,0.0],0.0,0.5,[1.0,1.0,1.0,1.0],[1.0,1.0,1.0,1.0],1.0,0.0,1.3300000429153442],"is_active_output":false,"name":"Principled BSDF","outputs":[[0,0,0,0]],"type":"BSDF_PRINCIPLED_BL"},{"inputs":[[0,0,0,0],[0,0,0,0],[0.0,0.0,0.0],0.0],"is_active_output":true,"name":"Material Output","outputs":[],"type":"OUTPUT_MATERIAL_BL"},{"alphaMode":"CHANNEL_PACKED","inputs":[[0.0,0.0,0.0]],"is_active_output":false,"name":"Image Texture","outputs":[[0.800000011920929,0.800000011920929,0.800000011920929,1.0],0.0],"projection":"FLAT","projectionBlend":0.0,"texture":6,"type":"TEX_IMAGE_BL"},{"alphaMode":"CHANNEL_PACKED","inputs":[[0.0,0.0,0.0]],"is_active_output":false,"name":"Image Texture.001","outputs":[[0.800000011920929,0.800000011920929,0.800000011920929,1.0],0.0],"projection":"FLAT","projectionBlend":0.0,"texture":6,"type":"TEX_IMAGE_BL"}]}}},"name":"Quest_Screen"},{"alphaMode":"OPAQUE","extensions":{"S8S_v3d_materials":{"gtaoVisible":true,"materialIndex":0,"nodeGraph":{"edges":[{"fromNode":0,"fromOutput":0,"toInput":0,"toNode":1}],"nodes":[{"inputs":[[0.27383100986480713,0.27383100986480713,0.27383100986480713,1.0],1.0,0.5,1.5,1.0,[0.0,0.0,0.0],0.0,0.0,[1.0,0.20000000298023224,0.10000000149011612],0.05000000074505806,1.399999976158142,0.0,0.5,[1.0,1.0,1.0,1.0],0.0,0.0,[0.0,0.0,0.0],0.0,0.0,0.029999999329447746,1.5,[1.0,1.0,1.0,1.0],[0.0,0.0,0.0],0.0,0.5,[1.0,1.0,1.0,1.0],[1.0,1.0,1.0,1.0],0.0,0.0,1.3300000429153442],"is_active_output":false,"name":"Principled BSDF","outputs":[[0,0,0,0]],"type":"BSDF_PRINCIPLED_BL"},{"inputs":[[0,0,0,0],[0,0,0,0],[0.0,0.0,0.0],0.0],"is_active_output":true,"name":"Material Output","outputs":[],"type":"OUTPUT_MATERIAL_BL"}]}}},"name":"Quest_Stecker"},{"alphaMode":"OPAQUE","extensions":{"S8S_v3d_materials":{"gtaoVisible":true,"materialIndex":0,"nodeGraph":{"edges":[{"fromNode":0,"fromOutput":0,"toInput":0,"toNode":1}],"nodes":[{"inputs":[[0.013768100179731846,0.014220800250768661,0.01835170015692711,1.0],0.0,0.7363640069961548,1.5,1.0,[0.0,0.0,0.0],0.0,0.0,[1.0,0.20000000298023224,0.10000000149011612],0.05000000074505806,1.399999976158142,0.0,0.5,[1.0,1.0,1.0,1.0],0.0,0.0,[0.0,0.0,0.0],0.0,0.0,0.029999999329447746,1.5,[1.0,1.0,1.0,1.0],[0.0,0.0,0.0],0.0,0.5,[1.0,1.0,1.0,1.0],[1.0,1.0,1.0,1.0],0.0,0.0,1.3300000429153442],"is_active_output":false,"name":"Principled BSDF","outputs":[[0,0,0,0]],"type":"BSDF_PRINCIPLED_BL"},{"inputs":[[0,0,0,0],[0,0,0,0],[0.0,0.0,0.0],0.0],"is_active_output":true,"name":"Material Output","outputs":[],"type":"OUTPUT_MATERIAL_BL"}]}}},"name":"Quest_Stoff"},{"alphaMode":"OPAQUE","extensions":{"S8S_v3d_materials":{"gtaoVisible":true,"materialIndex":0,"nodeGraph":{"edges":[{"fromNode":2,"fromOutput":0,"toInput":2,"toNode":1},{"fromNode":1,"fromOutput":0,"toInput":0,"toNode":0}],"nodes":[{"inputs":[[0,0,0,0],[0,0,0,0],[0.0,0.0,0.0],0.0],"is_active_output":true,"name":"Material Output","outputs":[],"type":"OUTPUT_MATERIAL_BL"},{"inputs":[[0.35832056403160095,0.35832056403160095,0.35832056403160095,1.0],0.0,0.37727272510528564,1.4500000476837158,1.0,[0.0,0.0,0.0],0.0,0.0,[1.0,0.20000000298023224,0.10000000149011612],0.05000000074505806,1.399999976158142,0.0,0.5,[1.0,1.0,1.0,1.0],0.0,0.0,[0.0,0.0,0.0],0.0,0.0,0.029999999329447746,1.5,[1.0,1.0,1.0,1.0],[0.0,0.0,0.0],0.0,0.5,[1.0,1.0,1.0,1.0],[0.0,0.0,0.0,1.0],1.0,0.0,1.3300000429153442],"is_active_output":false,"name":"Principled BSDF","outputs":[[0,0,0,0]],"type":"BSDF_PRINCIPLED_BL"},{"inputs":[[0.0,0.0,0.0]],"is_active_output":false,"name":"Image Texture","outputs":[[0.0,0.0,0.0,0.0],0.0],"projection":"FLAT","projectionBlend":0.0,"type":"TEX_IMAGE_NONE_BL"}]}}},"name":"rap0"},{"alphaMode":"OPAQUE","extensions":{"S8S_v3d_materials":{"gtaoVisible":true,"materialIndex":0,"nodeGraph":{"edges":[{"fromNode":2,"fromOutput":0,"toInput":2,"toNode":1},{"fromNode":1,"fromOutput":0,"toInput":0,"toNode":0}],"nodes":[{"inputs":[[0,0,0,0],[0,0,0,0],[0.0,0.0,0.0],0.0],"is_active_output":true,"name":"Material Output","outputs":[],"type":"OUTPUT_MATERIAL_BL"},{"inputs":[[0.3583316504955292,0.1691248118877411,0.16301792860031128,1.0],0.0,0.37727272510528564,1.4500000476837158,1.0,[0.0,0.0,0.0],0.0,0.0,[1.0,0.20000000298023224,0.10000000149011612],0.05000000074505806,1.399999976158142,0.0,0.5,[1.0,1.0,1.0,1.0],0.0,0.0,[0.0,0.0,0.0],0.0,0.0,0.029999999329447746,1.5,[1.0,1.0,1.0,1.0],[0.0,0.0,0.0],0.0,0.5,[1.0,1.0,1.0,1.0],[0.0,0.0,0.0,1.0],1.0,0.0,1.3300000429153442],"is_active_output":false,"name":"Principled BSDF","outputs":[[0,0,0,0]],"type":"BSDF_PRINCIPLED_BL"},{"inputs":[[0.0,0.0,0.0]],"is_active_output":false,"name":"Image Texture","outputs":[[0.0,0.0,0.0,0.0],0.0],"projection":"FLAT","projectionBlend":0.0,"type":"TEX_IMAGE_NONE_BL"}]}}},"name":"rap1"},{"alphaMode":"OPAQUE","extensions":{"S8S_v3d_materials":{"gtaoVisible":true,"materialIndex":0,"nodeGraph":{"edges":[{"fromNode":2,"fromOutput":0,"toInput":2,"toNode":1},{"fromNode":1,"fromOutput":0,"toInput":0,"toNode":0}],"nodes":[{"inputs":[[0,0,0,0],[0,0,0,0],[0.0,0.0,0.0],0.0],"is_active_output":true,"name":"Material Output","outputs":[],"type":"OUTPUT_MATERIAL_BL"},{"inputs":[[0.0,0.0,0.0,1.0],0.0,0.37727272510528564,1.4500000476837158,1.0,[0.0,0.0,0.0],0.0,0.0,[1.0,0.20000000298023224,0.10000000149011612],0.05000000074505806,1.399999976158142,0.0,0.5,[1.0,1.0,1.0,1.0],0.0,0.0,[0.0,0.0,0.0],0.0,0.0,0.029999999329447746,1.5,[1.0,1.0,1.0,1.0],[0.0,0.0,0.0],0.0,0.5,[1.0,1.0,1.0,1.0],[0.0,0.0,0.0,1.0],1.0,0.0,1.3300000429153442],"is_active_output":false,"name":"Principled BSDF","outputs":[[0,0,0,0]],"type":"BSDF_PRINCIPLED_BL"},{"inputs":[[0.0,0.0,0.0]],"is_active_output":false,"name":"Image Texture","outputs":[[0.0,0.0,0.0,0.0],0.0],"projection":"FLAT","projectionBlend":0.0,"type":"TEX_IMAGE_NONE_BL"}]}}},"name":"rap2"},{"alphaMode":"OPAQUE","extensions":{"S8S_v3d_materials":{"gtaoVisible":true,"materialIndex":0,"nodeGraph":{"edges":[{"fromNode":2,"fromOutput":0,"toInput":2,"toNode":1},{"fromNode":1,"fromOutput":0,"toInput":0,"toNode":0}],"nodes":[{"inputs":[[0,0,0,0],[0,0,0,0],[0.0,0.0,0.0],0.0],"is_active_output":true,"name":"Material Output","outputs":[],"type":"OUTPUT_MATERIAL_BL"},{"inputs":[[0.32775282859802246,0.3583345115184784,0.08034127950668335,1.0],0.0,0.37727272510528564,1.4500000476837158,1.0,[0.0,0.0,0.0],0.0,0.0,[1.0,0.20000000298023224,0.10000000149011612],0.05000000074505806,1.399999976158142,0.0,0.5,[1.0,1.0,1.0,1.0],0.0,0.0,[0.0,0.0,0.0],0.0,0.0,0.029999999329447746,1.5,[1.0,1.0,1.0,1.0],[0.0,0.0,0.0],0.0,0.5,[1.0,1.0,1.0,1.0],[0.0,0.0,0.0,1.0],1.0,0.0,1.3300000429153442],"is_active_output":false,"name":"Principled BSDF","outputs":[[0,0,0,0]],"type":"BSDF_PRINCIPLED_BL"},{"inputs":[[0.0,0.0,0.0]],"is_active_output":false,"name":"Image Texture","outputs":[[0.0,0.0,0.0,0.0],0.0],"projection":"FLAT","projectionBlend":0.0,"type":"TEX_IMAGE_NONE_BL"}]}}},"name":"rap3"},{"alphaMode":"OPAQUE","extensions":{"S8S_v3d_materials":{"gtaoVisible":true,"materialIndex":0,"nodeGraph":{"edges":[{"fromNode":2,"fromOutput":0,"toInput":2,"toNode":1},{"fromNode":1,"fromOutput":0,"toInput":0,"toNode":0}],"nodes":[{"inputs":[[0,0,0,0],[0,0,0,0],[0.0,0.0,0.0],0.0],"is_active_output":true,"name":"Material Output","outputs":[],"type":"OUTPUT_MATERIAL_BL"},{"inputs":[[0.09555980563163757,0.3583233952522278,0.19595924019813538,1.0],0.0,0.37727272510528564,1.4500000476837158,1.0,[0.0,0.0,0.0],0.0,0.0,[1.0,0.20000000298023224,0.10000000149011612],0.05000000074505806,1.399999976158142,0.0,0.5,[1.0,1.0,1.0,1.0],0.0,0.0,[0.0,0.0,0.0],0.0,0.0,0.029999999329447746,1.5,[1.0,1.0,1.0,1.0],[0.0,0.0,0.0],0.0,0.5,[1.0,1.0,1.0,1.0],[0.0,0.0,0.0,1.0],1.0,0.0,1.3300000429153442],"is_active_output":false,"name":"Principled BSDF","outputs":[[0,0,0,0]],"type":"BSDF_PRINCIPLED_BL"},{"inputs":[[0.0,0.0,0.0]],"is_active_output":false,"name":"Image Texture","outputs":[[0.0,0.0,0.0,0.0],0.0],"projection":"FLAT","projectionBlend":0.0,"type":"TEX_IMAGE_NONE_BL"}]}}},"name":"rap4"},{"alphaMode":"OPAQUE","extensions":{"S8S_v3d_materials":{"gtaoVisible":true,"materialIndex":0,"nodeGraph":{"edges":[{"fromNode":0,"fromOutput":0,"toInput":0,"toNode":1},{"fromNode":2,"fromOutput":0,"toInput":0,"toNode":0},{"fromNode":3,"fromOutput":0,"toInput":1,"toNode":0},{"fromNode":4,"fromOutput":2,"toInput":0,"toNode":3},{"fromNode":4,"fromOutput":1,"toInput":2,"toNode":0},{"fromNode":5,"fromOutput":0,"toInput":0,"toNode":4}],"nodes":[{"inputs":[[0.800000011920929,0.800000011920929,0.800000011920929,1.0],0.0,0.5,1.5,1.0,[0.0,0.0,0.0],0.0,0.0,[1.0,0.20000000298023224,0.10000000149011612],0.05000000074505806,1.399999976158142,0.0,0.5,[1.0,1.0,1.0,1.0],0.0,0.0,[0.0,0.0,0.0],0.0,0.0,0.029999999329447746,1.5,[1.0,1.0,1.0,1.0],[0.0,0.0,0.0],0.0,0.5,[1.0,1.0,1.0,1.0],[1.0,1.0,1.0,1.0],0.0,0.0,1.3300000429153442],"is_active_output":false,"name":"Principled BSDF","outputs":[[0,0,0,0]],"type":"BSDF_PRINCIPLED_BL"},{"inputs":[[0,0,0,0],[0,0,0,0],[0.0,0.0,0.0],0.0],"is_active_output":true,"name":"Material Output","outputs":[],"type":"OUTPUT_MATERIAL_BL"},{"alphaMode":"CHANNEL_PACKED","inputs":[[0.0,0.0,0.0]],"is_active_output":false,"name":"Image Texture","outputs":[[0.800000011920929,0.800000011920929,0.800000011920929,1.0],0.0],"projection":"FLAT","projectionBlend":0.0,"texture":1,"type":"TEX_IMAGE_BL"},{"inputs":[0.5,0.0,0.5],"is_active_output":false,"name":"Math","operation":"MULTIPLY","outputs":[0.0],"type":"MATH_BL","useClamp":false},{"inputs":[[0.800000011920929,0.800000011920929,0.800000011920929,1.0]],"is_active_output":false,"mode":"RGB","name":"Separate Color","outputs":[0.0,0.0,0.0],"type":"SEPARATE_COLOR_BL"},{"alphaMode":"CHANNEL_PACKED","inputs":[[0.0,0.0,0.0]],"is_active_output":false,"name":"Image Texture.001","outputs":[[0.800000011920929,0.800000011920929,0.800000011920929,1.0],0.0],"projection":"FLAT","projectionBlend":0.0,"texture":2,"type":"TEX_IMAGE_BL"}]}}},"name":"side10"},{"alphaMode":"OPAQUE","extensions":{"S8S_v3d_materials":{"gtaoVisible":true,"materialIndex":0,"nodeGraph":{"edges":[{"fromNode":0,"fromOutput":0,"toInput":0,"toNode":1},{"fromNode":2,"fromOutput":0,"toInput":1,"toNode":0},{"fromNode":3,"fromOutput":2,"toInput":0,"toNode":2},{"fromNode":3,"fromOutput":1,"toInput":2,"toNode":0},{"fromNode":4,"fromOutput":0,"toInput":0,"toNode":3},{"fromNode":5,"fromOutput":0,"toInput":0,"toNode":0}],"nodes":[{"inputs":[[0.800000011920929,0.800000011920929,0.800000011920929,1.0],0.0,0.5,1.5,1.0,[0.0,0.0,0.0],0.0,0.0,[1.0,0.20000000298023224,0.10000000149011612],0.05000000074505806,1.399999976158142,0.0,0.5,[1.0,1.0,1.0,1.0],0.0,0.0,[0.0,0.0,0.0],0.0,0.0,0.029999999329447746,1.5,[1.0,1.0,1.0,1.0],[0.0,0.0,0.0],0.0,0.5,[1.0,1.0,1.0,1.0],[1.0,1.0,1.0,1.0],0.0,0.0,1.3300000429153442],"is_active_output":false,"name":"Principled BSDF","outputs":[[0,0,0,0]],"type":"BSDF_PRINCIPLED_BL"},{"inputs":[[0,0,0,0],[0,0,0,0],[0.0,0.0,0.0],0.0],"is_active_output":true,"name":"Material Output","outputs":[],"type":"OUTPUT_MATERIAL_BL"},{"inputs":[0.5,0.0,0.5],"is_active_output":false,"name":"Math","operation":"MULTIPLY","outputs":[0.0],"type":"MATH_BL","useClamp":false},{"inputs":[[0.800000011920929,0.800000011920929,0.800000011920929,1.0]],"is_active_output":false,"mode":"RGB","name":"Separate Color","outputs":[0.0,0.0,0.0],"type":"SEPARATE_COLOR_BL"},{"alphaMode":"CHANNEL_PACKED","inputs":[[0.0,0.0,0.0]],"is_active_output":false,"name":"Image Texture.001","outputs":[[0.800000011920929,0.800000011920929,0.800000011920929,1.0],0.0],"projection":"FLAT","projectionBlend":0.0,"texture":10,"type":"TEX_IMAGE_BL"},{"inputs":[],"is_active_output":false,"name":"Color","outputs":[[0.08988147228956223,0.17063923180103302,0.15698188543319702,1.0]],"type":"RGB_BL"}]}}},"name":"side11"},{"alphaMode":"OPAQUE","extensions":{"S8S_v3d_materials":{"gtaoVisible":true,"materialIndex":0,"nodeGraph":{"edges":[{"fromNode":0,"fromOutput":0,"toInput":0,"toNode":1},{"fromNode":2,"fromOutput":0,"toInput":1,"toNode":0},{"fromNode":3,"fromOutput":2,"toInput":0,"toNode":2},{"fromNode":3,"fromOutput":1,"toInput":2,"toNode":0},{"fromNode":4,"fromOutput":0,"toInput":0,"toNode":3},{"fromNode":5,"fromOutput":0,"toInput":0,"toNode":0}],"nodes":[{"inputs":[[0.800000011920929,0.800000011920929,0.800000011920929,1.0],0.0,0.5,1.5,1.0,[0.0,0.0,0.0],0.0,0.0,[1.0,0.20000000298023224,0.10000000149011612],0.05000000074505806,1.399999976158142,0.0,0.5,[1.0,1.0,1.0,1.0],0.0,0.0,[0.0,0.0,0.0],0.0,0.0,0.029999999329447746,1.5,[1.0,1.0,1.0,1.0],[0.0,0.0,0.0],0.0,0.5,[1.0,1.0,1.0,1.0],[1.0,1.0,1.0,1.0],0.0,0.0,1.3300000429153442],"is_active_output":false,"name":"Principled BSDF","outputs":[[0,0,0,0]],"type":"BSDF_PRINCIPLED_BL"},{"inputs":[[0,0,0,0],[0,0,0,0],[0.0,0.0,0.0],0.0],"is_active_output":true,"name":"Material Output","outputs":[],"type":"OUTPUT_MATERIAL_BL"},{"inputs":[0.5,0.0,0.5],"is_active_output":false,"name":"Math","operation":"MULTIPLY","outputs":[0.0],"type":"MATH_BL","useClamp":false},{"inputs":[[0.800000011920929,0.800000011920929,0.800000011920929,1.0]],"is_active_output":false,"mode":"RGB","name":"Separate Color","outputs":[0.0,0.0,0.0],"type":"SEPARATE_COLOR_BL"},{"alphaMode":"CHANNEL_PACKED","inputs":[[0.0,0.0,0.0]],"is_active_output":false,"name":"Image Texture.001","outputs":[[0.800000011920929,0.800000011920929,0.800000011920929,1.0],0.0],"projection":"FLAT","projectionBlend":0.0,"texture":11,"type":"TEX_IMAGE_BL"},{"inputs":[],"is_active_output":false,"name":"Color","outputs":[[0.17062033712863922,0.04781070351600647,0.07489544153213501,1.0]],"type":"RGB_BL"}]}}},"name":"side12"},{"alphaMode":"OPAQUE","extensions":{"S8S_v3d_materials":{"gtaoVisible":true,"materialIndex":0,"nodeGraph":{"edges":[{"fromNode":0,"fromOutput":0,"toInput":0,"toNode":1},{"fromNode":2,"fromOutput":0,"toInput":1,"toNode":0},{"fromNode":3,"fromOutput":2,"toInput":0,"toNode":2},{"fromNode":3,"fromOutput":1,"toInput":2,"toNode":0},{"fromNode":4,"fromOutput":0,"toInput":0,"toNode":3},{"fromNode":5,"fromOutput":0,"toInput":0,"toNode":0}],"nodes":[{"inputs":[[0.800000011920929,0.800000011920929,0.800000011920929,1.0],0.0,0.5,1.5,1.0,[0.0,0.0,0.0],0.0,0.0,[1.0,0.20000000298023224,0.10000000149011612],0.05000000074505806,1.399999976158142,0.0,0.5,[1.0,1.0,1.0,1.0],0.0,0.0,[0.0,0.0,0.0],0.0,0.0,0.029999999329447746,1.5,[1.0,1.0,1.0,1.0],[0.0,0.0,0.0],0.0,0.5,[1.0,1.0,1.0,1.0],[1.0,1.0,1.0,1.0],0.0,0.0,1.3300000429153442],"is_active_output":false,"name":"Principled BSDF","outputs":[[0,0,0,0]],"type":"BSDF_PRINCIPLED_BL"},{"inputs":[[0,0,0,0],[0,0,0,0],[0.0,0.0,0.0],0.0],"is_active_output":true,"name":"Material Output","outputs":[],"type":"OUTPUT_MATERIAL_BL"},{"inputs":[0.5,0.0,0.5],"is_active_output":false,"name":"Math","operation":"MULTIPLY","outputs":[0.0],"type":"MATH_BL","useClamp":false},{"inputs":[[0.800000011920929,0.800000011920929,0.800000011920929,1.0]],"is_active_output":false,"mode":"RGB","name":"Separate Color","outputs":[0.0,0.0,0.0],"type":"SEPARATE_COLOR_BL"},{"alphaMode":"CHANNEL_PACKED","inputs":[[0.0,0.0,0.0]],"is_active_output":false,"name":"Image Texture.001","outputs":[[0.800000011920929,0.800000011920929,0.800000011920929,1.0],0.0],"projection":"FLAT","projectionBlend":0.0,"texture":12,"type":"TEX_IMAGE_BL"},{"inputs":[],"is_active_output":false,"name":"Color","outputs":[[0.004363868851214647,0.11414389312267303,0.17063651978969574,1.0]],"type":"RGB_BL"}]}}},"name":"side13"},{"alphaMode":"OPAQUE","extensions":{"S8S_v3d_materials":{"gtaoVisible":true,"materialIndex":0,"nodeGraph":{"edges":[{"fromNode":0,"fromOutput":0,"toInput":0,"toNode":1},{"fromNode":2,"fromOutput":0,"toInput":1,"toNode":0},{"fromNode":3,"fromOutput":2,"toInput":0,"toNode":2},{"fromNode":3,"fromOutput":1,"toInput":2,"toNode":0},{"fromNode":4,"fromOutput":0,"toInput":0,"toNode":3},{"fromNode":5,"fromOutput":0,"toInput":0,"toNode":0}],"nodes":[{"inputs":[[0.800000011920929,0.800000011920929,0.800000011920929,1.0],0.0,0.5,1.5,1.0,[0.0,0.0,0.0],0.0,0.0,[1.0,0.20000000298023224,0.10000000149011612],0.05000000074505806,1.399999976158142,0.0,0.5,[1.0,1.0,1.0,1.0],0.0,0.0,[0.0,0.0,0.0],0.0,0.0,0.029999999329447746,1.5,[1.0,1.0,1.0,1.0],[0.0,0.0,0.0],0.0,0.5,[1.0,1.0,1.0,1.0],[1.0,1.0,1.0,1.0],0.0,0.0,1.3300000429153442],"is_active_output":false,"name":"Principled BSDF","outputs":[[0,0,0,0]],"type":"BSDF_PRINCIPLED_BL"},{"inputs":[[0,0,0,0],[0,0,0,0],[0.0,0.0,0.0],0.0],"is_active_output":true,"name":"Material Output","outputs":[],"type":"OUTPUT_MATERIAL_BL"},{"inputs":[0.5,0.0,0.5],"is_active_output":false,"name":"Math","operation":"MULTIPLY","outputs":[0.0],"type":"MATH_BL","useClamp":false},{"inputs":[[0.800000011920929,0.800000011920929,0.800000011920929,1.0]],"is_active_output":false,"mode":"RGB","name":"Separate Color","outputs":[0.0,0.0,0.0],"type":"SEPARATE_COLOR_BL"},{"alphaMode":"CHANNEL_PACKED","inputs":[[0.0,0.0,0.0]],"is_active_output":false,"name":"Image Texture.001","outputs":[[0.800000011920929,0.800000011920929,0.800000011920929,1.0],0.0],"projection":"FLAT","projectionBlend":0.0,"texture":13,"type":"TEX_IMAGE_BL"},{"inputs":[],"is_active_output":false,"name":"Color","outputs":[[0.3673088550567627,0.40644508600234985,0.38883233070373535,1.0]],"type":"RGB_BL"}]}}},"name":"side14"},{"alphaMode":"OPAQUE","extensions":{"S8S_v3d_materials":{"gtaoVisible":true,"materialIndex":0,"nodeGraph":{"edges":[{"fromNode":0,"fromOutput":0,"toInput":0,"toNode":1},{"fromNode":2,"fromOutput":0,"toInput":1,"toNode":0},{"fromNode":3,"fromOutput":2,"toInput":0,"toNode":2},{"fromNode":3,"fromOutput":1,"toInput":2,"toNode":0},{"fromNode":4,"fromOutput":0,"toInput":0,"toNode":3},{"fromNode":5,"fromOutput":0,"toInput":0,"toNode":0}],"nodes":[{"inputs":[[0.800000011920929,0.800000011920929,0.800000011920929,1.0],0.0,0.5,1.5,1.0,[0.0,0.0,0.0],0.0,0.0,[1.0,0.20000000298023224,0.10000000149011612],0.05000000074505806,1.399999976158142,0.0,0.5,[1.0,1.0,1.0,1.0],0.0,0.0,[0.0,0.0,0.0],0.0,0.0,0.029999999329447746,1.5,[1.0,1.0,1.0,1.0],[0.0,0.0,0.0],0.0,0.5,[1.0,1.0,1.0,1.0],[1.0,1.0,1.0,1.0],0.0,0.0,1.3300000429153442],"is_active_output":false,"name":"Principled BSDF","outputs":[[0,0,0,0]],"type":"BSDF_PRINCIPLED_BL"},{"inputs":[[0,0,0,0],[0,0,0,0],[0.0,0.0,0.0],0.0],"is_active_output":true,"name":"Material Output","outputs":[],"type":"OUTPUT_MATERIAL_BL"},{"inputs":[0.5,0.0,0.5],"is_active_output":false,"name":"Math","operation":"MULTIPLY","outputs":[0.0],"type":"MATH_BL","useClamp":false},{"inputs":[[0.800000011920929,0.800000011920929,0.800000011920929,1.0]],"is_active_output":false,"mode":"RGB","name":"Separate Color","outputs":[0.0,0.0,0.0],"type":"SEPARATE_COLOR_BL"},{"alphaMode":"CHANNEL_PACKED","inputs":[[0.0,0.0,0.0]],"is_active_output":false,"name":"Image Texture.001","outputs":[[0.800000011920929,0.800000011920929,0.800000011920929,1.0],0.0],"projection":"FLAT","projectionBlend":0.0,"texture":14,"type":"TEX_IMAGE_BL"},{"inputs":[],"is_active_output":false,"name":"Color","outputs":[[0.09595274925231934,0.17063651978969574,0.05159691721200943,1.0]],"type":"RGB_BL"}]}}},"name":"side15"},{"alphaMode":"OPAQUE","extensions":{"S8S_v3d_materials":{"gtaoVisible":true,"materialIndex":0,"nodeGraph":{"edges":[{"fromNode":0,"fromOutput":0,"toInput":0,"toNode":1}],"nodes":[{"inputs":[[0.13715378940105438,0.14293108880519867,0.19688230752944946,1.0],0.0,0.7363640069961548,1.5,1.0,[0.0,0.0,0.0],0.0,0.0,[1.0,0.20000000298023224,0.10000000149011612],0.05000000074505806,1.399999976158142,0.0,0.5,[1.0,1.0,1.0,1.0],0.0,0.0,[0.0,0.0,0.0],0.0,0.0,0.029999999329447746,1.5,[1.0,1.0,1.0,1.0],[0.0,0.0,0.0],0.0,0.5,[1.0,1.0,1.0,1.0],[1.0,1.0,1.0,1.0],0.0,0.0,1.3300000429153442],"is_active_output":false,"name":"Principled BSDF","outputs":[[0,0,0,0]],"type":"BSDF_PRINCIPLED_BL"},{"inputs":[[0,0,0,0],[0,0,0,0],[0.0,0.0,0.0],0.0],"is_active_output":true,"name":"Material Output","outputs":[],"type":"OUTPUT_MATERIAL_BL"}]}}},"name":"up5"},{"alphaMode":"OPAQUE","extensions":{"S8S_v3d_materials":{"gtaoVisible":true,"materialIndex":0,"nodeGraph":{"edges":[{"fromNode":0,"fromOutput":0,"toInput":0,"toNode":1}],"nodes":[{"inputs":[[0.013972615823149681,0.23154547810554504,0.5474571585655212,1.0],0.0,0.7363640069961548,1.5,1.0,[0.0,0.0,0.0],0.0,0.0,[1.0,0.20000000298023224,0.10000000149011612],0.05000000074505806,1.399999976158142,0.0,0.5,[1.0,1.0,1.0,1.0],0.0,0.0,[0.0,0.0,0.0],0.0,0.0,0.029999999329447746,1.5,[1.0,1.0,1.0,1.0],[0.0,0.0,0.0],0.0,0.5,[1.0,1.0,1.0,1.0],[1.0,1.0,1.0,1.0],0.0,0.0,1.3300000429153442],"is_active_output":false,"name":"Principled BSDF","outputs":[[0,0,0,0]],"type":"BSDF_PRINCIPLED_BL"},{"inputs":[[0,0,0,0],[0,0,0,0],[0.0,0.0,0.0],0.0],"is_active_output":true,"name":"Material Output","outputs":[],"type":"OUTPUT_MATERIAL_BL"}]}}},"name":"up6"},{"alphaMode":"OPAQUE","extensions":{"S8S_v3d_materials":{"gtaoVisible":true,"materialIndex":0,"nodeGraph":{"edges":[{"fromNode":0,"fromOutput":0,"toInput":0,"toNode":1}],"nodes":[{"inputs":[[0.1968810260295868,0.07292483001947403,0.09488499164581299,1.0],0.0,0.7363640069961548,1.5,1.0,[0.0,0.0,0.0],0.0,0.0,[1.0,0.20000000298023224,0.10000000149011612],0.05000000074505806,1.399999976158142,0.0,0.5,[1.0,1.0,1.0,1.0],0.0,0.0,[0.0,0.0,0.0],0.0,0.0,0.029999999329447746,1.5,[1.0,1.0,1.0,1.0],[0.0,0.0,0.0],0.0,0.5,[1.0,1.0,1.0,1.0],[1.0,1.0,1.0,1.0],0.0,0.0,1.3300000429153442],"is_active_output":false,"name":"Principled BSDF","outputs":[[0,0,0,0]],"type":"BSDF_PRINCIPLED_BL"},{"inputs":[[0,0,0,0],[0,0,0,0],[0.0,0.0,0.0],0.0],"is_active_output":true,"name":"Material Output","outputs":[],"type":"OUTPUT_MATERIAL_BL"}]}}},"name":"up7"},{"alphaMode":"OPAQUE","extensions":{"S8S_v3d_materials":{"gtaoVisible":true,"materialIndex":0,"nodeGraph":{"edges":[{"fromNode":0,"fromOutput":0,"toInput":0,"toNode":1}],"nodes":[{"inputs":[[0.013768100179731846,0.014220800250768661,0.01835170015692711,1.0],0.0,0.7363640069961548,1.5,1.0,[0.0,0.0,0.0],0.0,0.0,[1.0,0.20000000298023224,0.10000000149011612],0.05000000074505806,1.399999976158142,0.0,0.5,[1.0,1.0,1.0,1.0],0.0,0.0,[0.0,0.0,0.0],0.0,0.0,0.029999999329447746,1.5,[1.0,1.0,1.0,1.0],[0.0,0.0,0.0],0.0,0.5,[1.0,1.0,1.0,1.0],[1.0,1.0,1.0,1.0],0.0,0.0,1.3300000429153442],"is_active_output":false,"name":"Principled BSDF","outputs":[[0,0,0,0]],"type":"BSDF_PRINCIPLED_BL"},{"inputs":[[0,0,0,0],[0,0,0,0],[0.0,0.0,0.0],0.0],"is_active_output":true,"name":"Material Output","outputs":[],"type":"OUTPUT_MATERIAL_BL"}]}}},"name":"up8.001"},{"alphaMode":"OPAQUE","extensions":{"S8S_v3d_materials":{"gtaoVisible":true,"materialIndex":0,"nodeGraph":{"edges":[{"fromNode":0,"fromOutput":0,"toInput":0,"toNode":1}],"nodes":[{"inputs":[[0.11786331236362457,0.1968810260295868,0.07222398370504379,1.0],0.0,0.7363640069961548,1.5,1.0,[0.0,0.0,0.0],0.0,0.0,[1.0,0.20000000298023224,0.10000000149011612],0.05000000074505806,1.399999976158142,0.0,0.5,[1.0,1.0,1.0,1.0],0.0,0.0,[0.0,0.0,0.0],0.0,0.0,0.029999999329447746,1.5,[1.0,1.0,1.0,1.0],[0.0,0.0,0.0],0.0,0.5,[1.0,1.0,1.0,1.0],[1.0,1.0,1.0,1.0],0.0,0.0,1.3300000429153442],"is_active_output":false,"name":"Principled BSDF","outputs":[[0,0,0,0]],"type":"BSDF_PRINCIPLED_BL"},{"inputs":[[0,0,0,0],[0,0,0,0],[0.0,0.0,0.0],0.0],"is_active_output":true,"name":"Material Output","outputs":[],"type":"OUTPUT_MATERIAL_BL"}]}}},"name":"up9"},{"alphaMode":"OPAQUE","extensions":{"S8S_v3d_materials":{"gtaoVisible":true,"materialIndex":0,"nodeGraph":{"edges":[{"fromNode":1,"fromOutput":0,"toInput":0,"toNode":0}],"nodes":[{"inputs":[[0,0,0,0],[0,0,0,0]],"is_active_output":true,"name":"World Output","outputs":[],"type":"OUTPUT_WORLD_BL"},{"inputs":[[0.0014692434342578053,0.0014692434342578053,0.0014692434342578053,1.0],8.399999618530273],"is_active_output":false,"name":"Background","outputs":[[0,0,0,0]],"type":"BACKGROUND_BL"}]}}},"name":"Verge3D_Environment_World"}],"meshes":[{"extensions":{"S8S_v3d_mesh":{"colorLayers":{},"uvLayers":{"UVMap":"TEXCOORD_0"}}},"name":"Cube","primitives":[{"attributes":{"NORMAL":2,"POSITION":1,"TEXCOORD_0":3},"indices":0,"material":14,"mode":4}]},{"extensions":{"S8S_v3d_mesh":{"colorLayers":{},"uvLayers":{"UVMap":"TEXCOORD_0"}}},"name":"Cube.001","primitives":[{"attributes":{"NORMAL":6,"POSITION":5,"TEXCOORD_0":7},"indices":4,"material":15,"mode":4}]},{"extensions":{"S8S_v3d_mesh":{"colorLayers":{},"uvLayers":{"UVMap":"TEXCOORD_0"}}},"name":"Cube.002","primitives":[{"attributes":{"NORMAL":10,"POSITION":9,"TEXCOORD_0":11},"indices":8,"material":16,"mode":4}]},{"extensions":{"S8S_v3d_mesh":{"colorLayers":{},"uvLayers":{"UVMap":"TEXCOORD_0"}}},"name":"Cube.003","primitives":[{"attributes":{"NORMAL":14,"POSITION":13,"TEXCOORD_0":15},"indices":12,"material":17,"mode":4}]},{"extensions":{"S8S_v3d_mesh":{"colorLayers":{},"uvLayers":{"UVMap":"TEXCOORD_0"}}},"name":"Cube.004","primitives":[{"attributes":{"NORMAL":18,"POSITION":17,"TEXCOORD_0":19},"indices":16,"material":18,"mode":4}]},{"extensions":{"S8S_v3d_mesh":{"colorLayers":{},"uvLayers":{"UVMap":"TEXCOORD_0"}}},"name":"Cube.005","primitives":[{"attributes":{"NORMAL":22,"POSITION":21,"TEXCOORD_0":23},"indices":20,"material":25,"mode":4}]},{"extensions":{"S8S_v3d_mesh":{"colorLayers":{},"uvLayers":{"UVMap":"TEXCOORD_0"}}},"name":"Cube.006","primitives":[{"attributes":{"NORMAL":26,"POSITION":25,"TEXCOORD_0":27},"indices":24,"material":26,"mode":4}]},{"extensions":{"S8S_v3d_mesh":{"colorLayers":{},"uvLayers":{"UVMap":"TEXCOORD_0"}}},"name":"Cube.007","primitives":[{"attributes":{"NORMAL":30,"POSITION":29,"TEXCOORD_0":31},"indices":28,"material":27,"mode":4}]},{"extensions":{"S8S_v3d_mesh":{"colorLayers":{},"uvLayers":{"UVMap":"TEXCOORD_0"}}},"name":"Cube.008","primitives":[{"attributes":{"NORMAL":34,"POSITION":33,"TEXCOORD_0":35},"indices":32,"material":28,"mode":4}]},{"extensions":{"S8S_v3d_mesh":{"colorLayers":{},"uvLayers":{"UVMap":"TEXCOORD_0"}}},"name":"Cube.009","primitives":[{"attributes":{"NORMAL":38,"POSITION":37,"TEXCOORD_0":39},"indices":36,"material":29,"mode":4}]},{"extensions":{"S8S_v3d_mesh":{"colorLayers":{},"uvLayers":{"UVMap":"TEXCOORD_0"}}},"name":"Cube.010","primitives":[{"attributes":{"NORMAL":42,"POSITION":41,"TEXCOORD_0":43},"indices":40,"material":19,"mode":4}]},{"extensions":{"S8S_v3d_mesh":{"colorLayers":{},"uvLayers":{"UVMap":"TEXCOORD_0"}}},"name":"Cube.011","primitives":[{"attributes":{"NORMAL":46,"POSITION":45,"TEXCOORD_0":47},"indices":44,"material":20,"mode":4}]},{"extensions":{"S8S_v3d_mesh":{"colorLayers":{},"uvLayers":{"UVMap":"TEXCOORD_0"}}},"name":"Cube.012","primitives":[{"attributes":{"NORMAL":50,"POSITION":49,"TEXCOORD_0":51},"indices":48,"material":21,"mode":4}]},{"extensions":{"S8S_v3d_mesh":{"colorLayers":{},"uvLayers":{"UVMap":"TEXCOORD_0"}}},"name":"Cube.013","primitives":[{"attributes":{"NORMAL":54,"POSITION":53,"TEXCOORD_0":55},"indices":52,"material":22,"mode":4}]},{"extensions":{"S8S_v3d_mesh":{"colorLayers":{},"uvLayers":{"UVMap":"TEXCOORD_0"}}},"name":"Cube.014","primitives":[{"attributes":{"NORMAL":58,"POSITION":57,"TEXCOORD_0":59},"indices":56,"material":23,"mode":4}]},{"extensions":{"S8S_v3d_mesh":{"colorLayers":{},"uvLayers":{"UVMap":"TEXCOORD_0"}}},"name":"Cube.015","primitives":[{"attributes":{"NORMAL":62,"POSITION":61,"TEXCOORD_0":63},"indices":60,"material":24,"mode":4}]},{"extensions":{"S8S_v3d_mesh":{"colorLayers":{},"uvLayers":{"UVMap":"TEXCOORD_0"}}},"name":"Object_0","primitives":[{"attributes":{"NORMAL":66,"POSITION":65,"TEXCOORD_0":67},"indices":64,"material":1,"mode":4}]},{"extensions":{"S8S_v3d_mesh":{"colorLayers":{},"uvLayers":{"UVMap":"TEXCOORD_0"}}},"name":"Object_1","primitives":[{"attributes":{"NORMAL":70,"POSITION":69,"TEXCOORD_0":71},"indices":68,"material":13,"mode":4}]},{"extensions":{"S8S_v3d_mesh":{"colorLayers":{},"uvLayers":{"UVMap":"TEXCOORD_0"}}},"name":"Object_10","primitives":[{"attributes":{"NORMAL":74,"POSITION":73,"TEXCOORD_0":75},"indices":72,"material":11,"mode":4}]},{"extensions":{"S8S_v3d_mesh":{"colorLayers":{},"uvLayers":{"UVMap":"TEXCOORD_0"}}},"name":"Object_11","primitives":[{"attributes":{"NORMAL":78,"POSITION":77,"TEXCOORD_0":79},"indices":76,"material":2,"mode":4}]},{"extensions":{"S8S_v3d_mesh":{"colorLayers":{},"uvLayers":{"UVMap":"TEXCOORD_0"}}},"name":"Object_12","primitives":[{"attributes":{"NORMAL":82,"POSITION":81,"TEXCOORD_0":83},"indices":80,"material":6,"mode":4}]},{"extensions":{"S8S_v3d_mesh":{"colorLayers":{},"uvLayers":{"UVMap":"TEXCOORD_0"}}},"name":"Object_13","primitives":[{"attributes":{"NORMAL":86,"POSITION":85,"TANGENT":87,"TEXCOORD_0":88},"indices":84,"material":7,"mode":4}]},{"extensions":{"S8S_v3d_mesh":{"colorLayers":{},"uvLayers":{"UVMap":"TEXCOORD_0"}}},"name":"Object_2","primitives":[{"attributes":{"NORMAL":91,"POSITION":90,"TEXCOORD_0":92},"indices":89,"material":12,"mode":4}]},{"extensions":{"S8S_v3d_mesh":{"colorLayers":{},"uvLayers":{"UVMap":"TEXCOORD_0"}}},"name":"Object_3","primitives":[{"attributes":{"NORMAL":95,"POSITION":94,"TEXCOORD_0":96},"indices":93,"material":9,"mode":4}]},{"extensions":{"S8S_v3d_mesh":{"colorLayers":{},"uvLayers":{"UVMap":"TEXCOORD_0"}}},"name":"Object_4","primitives":[{"attributes":{"NORMAL":99,"POSITION":98,"TEXCOORD_0":100},"indices":97,"material":0,"mode":4}]},{"extensions":{"S8S_v3d_mesh":{"colorLayers":{},"uvLayers":{"UVMap":"TEXCOORD_0"}}},"name":"Object_5","primitives":[{"attributes":{"NORMAL":103,"POSITION":102,"TEXCOORD_0":104},"indices":101,"material":3,"mode":4}]},{"extensions":{"S8S_v3d_mesh":{"colorLayers":{},"uvLayers":{"UVMap":"TEXCOORD_0"}}},"name":"Object_6","primitives":[{"attributes":{"NORMAL":107,"POSITION":106,"TEXCOORD_0":108},"indices":105,"material":8,"mode":4}]},{"extensions":{"S8S_v3d_mesh":{"colorLayers":{},"uvLayers":{"UVMap":"TEXCOORD_0"}}},"name":"Object_7","primitives":[{"attributes":{"NORMAL":111,"POSITION":110,"TEXCOORD_0":112},"indices":109,"material":5,"mode":4}]},{"extensions":{"S8S_v3d_mesh":{"colorLayers":{},"uvLayers":{"UVMap":"TEXCOORD_0"}}},"name":"Object_8","primitives":[{"attributes":{"NORMAL":115,"POSITION":114,"TEXCOORD_0":116},"indices":113,"material":4,"mode":4}]},{"extensions":{"S8S_v3d_mesh":{"colorLayers":{},"uvLayers":{"UVMap":"TEXCOORD_0"}}},"name":"Object_9","primitives":[{"attributes":{"NORMAL":119,"POSITION":118,"TEXCOORD_0":120},"indices":117,"material":10,"mode":4}]}],"nodes":[{"children":[11],"extensions":{"S8S_v3d_node":{"frustumCulling":true,"groupNames":[],"renderOrder":0}},"name":"Sketchfab_model","rotation":[-0.70710688829422,-0.0,0.0,0.7071066498756409],"scale":[0.2645912170410156,0.2645912766456604,0.2645912766456604],"translation":[-0.013160902075469494,0.3399370312690735,-0.3315802812576294]},{"extensions":{"S8S_v3d_node":{"frustumCulling":true,"groupNames":[],"renderOrder":0,"useCastShadows":true,"useShadows":true}},"mesh":16,"name":"Object_4"},{"extensions":{"S8S_v3d_node":{"frustumCulling":true,"groupNames":[],"renderOrder":0,"useCastShadows":true,"useShadows":true}},"mesh":24,"name":"Object_8"},{"extensions":{"S8S_v3d_node":{"frustumCulling":true,"groupNames":[],"renderOrder":0,"useCastShadows":true,"useShadows":true}},"mesh":20,"name":"Object_16"},{"extensions":{"S8S_v3d_node":{"frustumCulling":true,"groupNames":[],"renderOrder":0,"useCastShadows":true,"useShadows":true}},"mesh":28,"name":"Object_12"},{"extensions":{"S8S_v3d_node":{"frustumCulling":true,"groupNames":[],"renderOrder":0,"useCastShadows":true,"useShadows":true}},"mesh":3,"name":"Cube.003","scale":[0.0002519831759855151,0.00019567574781831354,0.00017734266293700784],"translation":[-7.078210830688477,-0.3924660086631775,0.02885802835226059]},{"extensions":{"S8S_v3d_node":{"frustumCulling":true,"groupNames":[],"renderOrder":0,"useCastShadows":true,"useShadows":true}},"mesh":5,"name":"Cube.005","scale":[0.0002519831759855151,0.00019567574781831354,0.00017734266293700784],"translation":[-7.075168609619141,-0.39168766140937805,0.026170052587985992]},{"extensions":{"S8S_v3d_node":{"frustumCulling":true,"groupNames":[],"renderOrder":0,"useCastShadows":true,"useShadows":true}},"mesh":9,"name":"Cube.009","scale":[0.0002519831759855151,0.00019567574781831354,0.00017734266293700784],"translation":[-7.07883358001709,-0.39186784625053406,0.0263114795088768]},{"extensions":{"S8S_v3d_node":{"frustumCulling":true,"groupNames":[],"renderOrder":0,"useCastShadows":true,"useShadows":true}},"mesh":13,"name":"Cube.013","scale":[0.00035796037991531193,0.00035796037991531193,0.00035796037991531193],"translation":[-7.079733848571777,-0.39537835121154785,0.027729474008083344]},{"extensions":{"S8S_v3d_node":{"frustumCulling":true,"groupNames":[],"renderOrder":0,"useCastShadows":true,"useShadows":true}},"mesh":15,"name":"Cube.015","scale":[0.00035796037991531193,0.00035796037991531193,0.00035796037991531193],"translation":[-7.081191062927246,-0.3952096700668335,0.028021089732646942]},{"extensions":{"S8S_v3d_node":{"frustumCulling":true,"groupNames":[],"renderOrder":0,"useCastShadows":true,"useShadows":true}},"mesh":19,"name":"Object_15"},{"children":[25],"extensions":{"S8S_v3d_node":{"frustumCulling":true,"groupNames":[],"renderOrder":0}},"name":"root"},{"extensions":{"S8S_v3d_node":{"frustumCulling":true,"groupNames":[],"renderOrder":0,"useCastShadows":true,"useShadows":true}},"mesh":23,"name":"Object_7"},{"extensions":{"S8S_v3d_node":{"frustumCulling":true,"groupNames":[],"renderOrder":0,"useCastShadows":true,"useShadows":true}},"mesh":27,"name":"Object_11"},{"extensions":{"S8S_v3d_node":{"frustumCulling":true,"groupNames":[],"renderOrder":0,"useCastShadows":true,"useShadows":true}},"mesh":2,"name":"Cube.002","scale":[0.0002519831759855151,0.00019567574781831354,0.00017734266293700784],"translation":[-7.07732629776001,-0.3924177289009094,0.028962932527065277]},{"extensions":{"S8S_v3d_node":{"frustumCulling":true,"groupNames":[],"renderOrder":0,"useCastShadows":true,"useShadows":true}},"mesh":8,"name":"Cube.008","scale":[0.0002519831759855151,0.00019567574781831354,0.00017734266293700784],"translation":[-7.078191757202148,-0.3917587399482727,0.02647244930267334]},{"extensions":{"S8S_v3d_node":{"frustumCulling":true,"groupNames":[],"renderOrder":0,"useCastShadows":true,"useShadows":true}},"mesh":12,"name":"Cube.012","scale":[0.00035796037991531193,0.00035796037991531193,0.00035796037991531193],"translation":[-7.078591346740723,-0.3952837884426117,0.02832663804292679]},{"children":[19,13,4,30,20,10,3,28,1,26,18,12,2,27],"extensions":{"S8S_v3d_node":{"frustumCulling":true,"groupNames":[],"renderOrder":0}},"name":"Quest_0","rotation":[0.70710688829422,0.0,-0.0,0.7071066498756409],"scale":[1.0,0.9999999403953552,0.9999999403953552],"translation":[0.0,0.3048303723335266,-1.413310170173645]},{"extensions":{"S8S_v3d_node":{"frustumCulling":true,"groupNames":[],"renderOrder":0,"useCastShadows":true,"useShadows":true}},"mesh":22,"name":"Object_6"},{"extensions":{"S8S_v3d_node":{"frustumCulling":true,"groupNames":[],"renderOrder":0,"useCastShadows":true,"useShadows":true}},"mesh":26,"name":"Object_10"},{"extensions":{"S8S_v3d_node":{"frustumCulling":true,"groupNames":[],"renderOrder":0,"useCastShadows":true,"useShadows":true}},"mesh":18,"name":"Object_14"},{"extensions":{"S8S_v3d_node":{"frustumCulling":true,"groupNames":[],"renderOrder":0,"useCastShadows":true,"useShadows":true}},"mesh":1,"name":"Cube.001","scale":[0.0002519831759855151,0.00019567574781831354,0.00017734266293700784],"translation":[-7.0764970779418945,-0.3922908306121826,0.029376208782196045]},{"extensions":{"S8S_v3d_node":{"frustumCulling":true,"groupNames":[],"renderOrder":0,"useCastShadows":true,"useShadows":true}},"mesh":7,"name":"Cube.007","scale":[0.0002519831759855151,0.00019567574781831354,0.00017734266293700784],"translation":[-7.077427864074707,-0.3917805552482605,0.02632979303598404]},{"extensions":{"S8S_v3d_node":{"frustumCulling":true,"groupNames":[],"renderOrder":0,"useCastShadows":true,"useShadows":true}},"mesh":11,"name":"Cube.011","scale":[0.00035796037991531193,0.00035796037991531193,0.00035796037991531193],"translation":[-7.077736854553223,-0.39517176151275635,0.028524763882160187]},{"extensions":{"S8S_v3d_node":{"frustumCulling":true,"groupNames":[],"renderOrder":0,"useCastShadows":true,"useShadows":true}},"mesh":14,"name":"Cube.014","scale":[0.00035796037991531193,0.00035796037991531193,0.00035796037991531193],"translation":[-7.080316543579102,-0.39539411664009094,0.027306601405143738]},{"children":[17],"extensions":{"S8S_v3d_node":{"frustumCulling":true,"groupNames":[],"renderOrder":0}},"name":"GLTF_SceneRootNode","rotation":[0.70710688829422,0.0,-0.0,0.7071066498756409],"scale":[1.0,1.0000001192092896,1.0000001192092896]},{"extensions":{"S8S_v3d_node":{"frustumCulling":true,"groupNames":[],"renderOrder":0,"useCastShadows":true,"useShadows":true}},"mesh":17,"name":"Object_5"},{"extensions":{"S8S_v3d_node":{"frustumCulling":true,"groupNames":[],"renderOrder":0,"useCastShadows":true,"useShadows":true}},"mesh":25,"name":"Object_9"},{"extensions":{"S8S_v3d_node":{"frustumCulling":true,"groupNames":[],"renderOrder":0,"useCastShadows":true,"useShadows":true}},"mesh":21,"name":"Object_17"},{"extensions":{"S8S_v3d_node":{"frustumCulling":true,"groupNames":[],"renderOrder":0,"useCastShadows":true,"useShadows":true}},"mesh":0,"name":"Cube","scale":[0.0002519831759855151,0.00019567574781831354,0.00017734266293700784],"translation":[-7.075613021850586,-0.3925133943557739,0.028446249663829803]},{"extensions":{"S8S_v3d_node":{"frustumCulling":true,"groupNames":[],"renderOrder":0,"useCastShadows":true,"useShadows":true}},"mesh":29,"name":"Object_13"},{"extensions":{"S8S_v3d_node":{"frustumCulling":true,"groupNames":[],"renderOrder":0,"useCastShadows":true,"useShadows":true}},"mesh":4,"name":"Cube.004","scale":[0.0002519831759855151,0.00019567574781831354,0.00017734266293700784],"translation":[-7.079083442687988,-0.39254069328308105,0.02869974821805954]},{"extensions":{"S8S_v3d_lights":{"light":0},"S8S_v3d_node":{"frustumCulling":true,"groupNames":[],"renderOrder":0}},"name":"Sun","rotation":[-0.24013148248195648,0.0,0.0,0.9707403779029846],"scale":[1.0,0.9999998807907104,0.9999998807907104],"translation":[-0.10730105638504028,1.6471617221832275,2.217155933380127]},{"extensions":{"S8S_v3d_node":{"frustumCulling":true,"groupNames":[],"renderOrder":0,"useCastShadows":true,"useShadows":true}},"mesh":6,"name":"Cube.006","scale":[0.0002519831759855151,0.00019567574781831354,0.00017734266293700784],"translation":[-7.076375961303711,-0.39173203706741333,0.026069242507219315]},{"extensions":{"S8S_v3d_node":{"frustumCulling":true,"groupNames":[],"renderOrder":0,"useCastShadows":true,"useShadows":true}},"mesh":10,"name":"Cube.010","scale":[0.00035796037991531193,0.00035796037991531193,0.00035796037991531193],"translation":[-7.076781272888184,-0.39526689052581787,0.027835406363010406]},{"camera":0,"name":"__DEFAULT_CAMERA__","rotation":[-0.09310109168291092,-0.14543277025222778,-0.01374727301299572,0.9848819971084595],"scale":[1.0,0.9999999403953552,0.9999999403953552],"translation":[-1.6974092721939087,1.4417288303375244,3.910161256790161]}],"samplers":[{}],"scene":0,"scenes":[{"extensions":{"S8S_v3d_scene":{"aaMethod":"AUTO","iblEnvironmentMode":"PMREM","physicallyCorrectLights":true,"pmremMaxTileSize":512,"shadowMap":{"esmDistanceScale":1.0,"renderReverseSided":false,"renderSingleSided":true,"type":"PCFPOISSON"},"worldMaterial":30}},"extras":{"animFrameRate":24,"coordSystem":"Z_UP_RIGHT"},"name":"Scene","nodes":[0,29,21,14,5,31,32,6,33,22,15,7,34,23,16,8,24,9,35]}],"textures":[{"extensions":{"S8S_v3d_texture":{"colorSpace":"srgb"}},"name":"Image_2","sampler":0,"source":0},{"extensions":{"S8S_v3d_texture":{"colorSpace":"srgb"}},"name":"Image_0","sampler":0,"source":1},{"extensions":{"S8S_v3d_texture":{"colorSpace":"non-color"}},"name":"Image_1","sampler":0,"source":2},{"extensions":{"S8S_v3d_texture":{"colorSpace":"non-color"}},"name":"Image_3","sampler":0,"source":3},{"extensions":{"S8S_v3d_texture":{"colorSpace":"srgb"}},"name":"Image_4","sampler":0,"source":4},{"extensions":{"S8S_v3d_texture":{"colorSpace":"non-color"}},"name":"Image_6","sampler":0,"source":5},{"extensions":{"S8S_v3d_texture":{"colorSpace":"srgb"}},"name":"Image_5","sampler":0,"source":6},{"extensions":{"S8S_v3d_texture":{"colorSpace":"srgb"}},"name":"Image_5","sampler":0,"source":6},{"extensions":{"S8S_v3d_texture":{"colorSpace":"srgb"}},"name":"Image_0","sampler":0,"source":1},{"extensions":{"S8S_v3d_texture":{"colorSpace":"non-color"}},"name":"Image_1","sampler":0,"source":2},{"extensions":{"S8S_v3d_texture":{"colorSpace":"non-color"}},"name":"Image_1.001","sampler":0,"source":7},{"extensions":{"S8S_v3d_texture":{"colorSpace":"non-color"}},"name":"Image_1.002","sampler":0,"source":8},{"extensions":{"S8S_v3d_texture":{"colorSpace":"non-color"}},"name":"Image_1.003","sampler":0,"source":9},{"extensions":{"S8S_v3d_texture":{"colorSpace":"non-color"}},"name":"Image_1.004","sampler":0,"source":10},{"extensions":{"S8S_v3d_texture":{"colorSpace":"non-color"}},"name":"Image_1.005","sampler":0,"source":11}]}
